/* XPM */
static char * icon_gui_48_xpm[] = {
"48 48 311 2",
"  	c None",
". 	c #8D8D8C",
"+ 	c #8C8C8B",
"@ 	c #C8C8C6",
"# 	c #8C8C8C",
"$ 	c #C8C8C5",
"% 	c #9A9A99",
"& 	c #D2D2D1",
"* 	c #FCFCFB",
"= 	c #FBFBFA",
"- 	c #FCCCC2",
"; 	c #FD7F65",
"> 	c #FD907A",
", 	c #FE431E",
"' 	c #FCEEEB",
") 	c #FCFCFA",
"! 	c #FE411C",
"~ 	c #FBFBF9",
"{ 	c #FAFAF8",
"] 	c #FBFBF8",
"^ 	c #FD8D76",
"/ 	c #FAFAF7",
"( 	c #F9F9F6",
"_ 	c #8C8C8A",
": 	c #F9F9F5",
"< 	c #F8F8F4",
"[ 	c #F7F7F3",
"} 	c #8B8B88",
"| 	c #FD856D",
"1 	c #FE6F53",
"2 	c #FDB0A0",
"3 	c #F7F7F2",
"4 	c #F6F6F1",
"5 	c #F6F6F0",
"6 	c #F5F5F0",
"7 	c #898987",
"8 	c #FE6749",
"9 	c #FE5F3F",
"0 	c #FD755A",
"a 	c #FCE2DC",
"b 	c #F8F8F5",
"c 	c #F5F5EF",
"d 	c #898986",
"e 	c #FC9883",
"f 	c #FD6B4E",
"g 	c #FDA18E",
"h 	c #FDAA98",
"i 	c #FE3D16",
"j 	c #FCC2B6",
"k 	c #FD9884",
"l 	c #FD6344",
"m 	c #FC7E64",
"n 	c #FAE0D9",
"o 	c #F6F6F2",
"p 	c #FCAF9F",
"q 	c #FE3C15",
"r 	c #FD6748",
"s 	c #FBCABF",
"t 	c #FC7458",
"u 	c #FD5E3D",
"v 	c #F9AD9B",
"w 	c #8B8B89",
"x 	c #F9F9F7",
"y 	c #FBAF9E",
"z 	c #FE3A13",
"A 	c #FD7A5E",
"B 	c #FD5837",
"C 	c #FB8369",
"D 	c #FC694B",
"E 	c #FA7C61",
"F 	c #8A8A88",
"G 	c #FAAE9C",
"H 	c #FE3B15",
"I 	c #FD5B3A",
"J 	c #FC846B",
"K 	c #F7C7B8",
"L 	c #FC6546",
"M 	c #FC6141",
"N 	c #F7BDAD",
"O 	c #F9AC9B",
"P 	c #FD441F",
"Q 	c #FD4C28",
"R 	c #F8C7BB",
"S 	c #FB694A",
"T 	c #FA8268",
"U 	c #F8AC99",
"V 	c #FB6D4F",
"W 	c #F99D88",
"X 	c #F8B2A0",
"Y 	c #F6D2C5",
"Z 	c #FB775B",
"` 	c #F6F6EF",
" .	c #F5E8E0",
"..	c #FB7355",
"+.	c #FA8A71",
"@.	c #FC5A39",
"#.	c #F9957E",
"$.	c #F7AB98",
"%.	c #FA775B",
"&.	c #F4F4EE",
"*.	c #F3F3ED",
"=.	c #F3F3EE",
"-.	c #FC5D3C",
";.	c #F6DCD2",
">.	c #F6AA97",
",.	c #FA775A",
"'.	c #F2F2EC",
").	c #F1F2EC",
"!.	c #F1F2EB",
"~.	c #F1F1EB",
"{.	c #888884",
"].	c #878783",
"^.	c #F5A996",
"/.	c #F9765A",
"(.	c #F0F1EB",
"_.	c #F0F0EB",
":.	c #F0F0EA",
"<.	c #EFF0EA",
"[.	c #EFEFE9",
"}.	c #EEEFE9",
"|.	c #868683",
"1.	c #868682",
"2.	c #F4A895",
"3.	c #F87559",
"4.	c #EEEEE9",
"5.	c #EEEEE8",
"6.	c #EDEEE8",
"7.	c #EDEDE8",
"8.	c #EDEDE7",
"9.	c #ECEDE7",
"0.	c #ECECE7",
"a.	c #FA6C4E",
"b.	c #F5F5EE",
"c.	c #858582",
"d.	c #848582",
"e.	c #F2A794",
"f.	c #F77458",
"g.	c #ECECE6",
"h.	c #EBECE6",
"i.	c #EBEBE5",
"j.	c #EAEBE5",
"k.	c #E9EAE4",
"l.	c #ECC9BC",
"m.	c #F86243",
"n.	c #EFC0B1",
"o.	c #848481",
"p.	c #838480",
"q.	c #EBEBE6",
"r.	c #F1A592",
"s.	c #F77457",
"t.	c #EAEAE5",
"u.	c #E8E9E4",
"v.	c #E8E9E3",
"w.	c #F47D63",
"x.	c #F5775C",
"y.	c #E7E8E2",
"z.	c #E7E8E3",
"A.	c #81827E",
"B.	c #82827F",
"C.	c #838380",
"D.	c #82837F",
"E.	c #F0A491",
"F.	c #F67356",
"G.	c #E7E9E3",
"H.	c #E6E8E2",
"I.	c #E6E7E2",
"J.	c #E6E7E1",
"K.	c #E5E7E1",
"L.	c #EDA997",
"M.	c #F85735",
"N.	c #E8CFC5",
"O.	c #E5E6E0",
"P.	c #80807D",
"Q.	c #80817E",
"R.	c #EFA390",
"S.	c #F57256",
"T.	c #E5E6E1",
"U.	c #E4E6E0",
"V.	c #E4E5E0",
"W.	c #E4E5DF",
"X.	c #E3E5DF",
"Y.	c #F66445",
"Z.	c #F1856C",
"`.	c #E3E4DE",
" +	c #7F7F7C",
".+	c #7F807D",
"++	c #EDA28F",
"@+	c #F47255",
"#+	c #E3E4DF",
"$+	c #E2E4DE",
"%+	c #E2E3DE",
"&+	c #E1E3DD",
"*+	c #ED937E",
"=+	c #F37054",
"-+	c #E1E2DD",
";+	c #E1E2DC",
">+	c #7E7E7B",
",+	c #7E7F7C",
"'+	c #ECA18E",
")+	c #F37155",
"!+	c #E2E3DD",
"~+	c #E0E2DC",
"{+	c #E0E1DC",
"]+	c #E0E1DB",
"^+	c #DFE1DB",
"/+	c #E7AF9F",
"(+	c #F46648",
"_+	c #DFE0DB",
":+	c #7C7D7A",
"<+	c #7D7E7B",
"[+	c #EB9F8C",
"}+	c #DEE0DA",
"|+	c #DEDFDA",
"1+	c #DDDFDA",
"2+	c #DDDFD9",
"3+	c #F65837",
"4+	c #E6AD9D",
"5+	c #7B7D79",
"6+	c #7D7D7A",
"7+	c #E99E8B",
"8+	c #F26F53",
"9+	c #DCDED9",
"0+	c #DCDED8",
"a+	c #DBDED8",
"b+	c #DBDDD8",
"c+	c #DBDDD7",
"d+	c #F36547",
"e+	c #EE7E65",
"f+	c #7A7B78",
"g+	c #7B7C79",
"h+	c #E89D8A",
"i+	c #F16F52",
"j+	c #DADDD7",
"k+	c #DADCD7",
"l+	c #DADCD6",
"m+	c #D9DCD6",
"n+	c #D9DBD6",
"o+	c #EC8068",
"p+	c #F45A3A",
"q+	c #D9DBD5",
"r+	c #797A77",
"s+	c #E79C89",
"t+	c #F06E52",
"u+	c #D8DBD5",
"v+	c #D8DAD5",
"w+	c #D8DAD4",
"x+	c #D7DAD4",
"y+	c #DDBAAF",
"z+	c #F35D3E",
"A+	c #DBC3BA",
"B+	c #D6D9D3",
"C+	c #787976",
"D+	c #E69A88",
"E+	c #F06D51",
"F+	c #D7D9D4",
"G+	c #D7D9D3",
"H+	c #D6D8D3",
"I+	c #D5D8D3",
"J+	c #D5D8D2",
"K+	c #D5D7D2",
"L+	c #F0684B",
"M+	c #E59380",
"N+	c #D4D7D1",
"O+	c #767875",
"P+	c #E9866F",
"Q+	c #F0694B",
"R+	c #EE7055",
"S+	c #D5D7D1",
"T+	c #D4D6D1",
"U+	c #D4D6D0",
"V+	c #D3D6D0",
"W+	c #E58B76",
"X+	c #F15C3D",
"Y+	c #F15F41",
"Z+	c #F15F40",
"`+	c #757774",
" @	c #F5502E",
".@	c #F45535",
"+@	c #E68C77",
"@@	c #D3D5D0",
"#@	c #D2D5D0",
"$@	c #D2D5CF",
"%@	c #D2D4CF",
"&@	c #D1D4CF",
"*@	c #D1D4CE",
"=@	c #DBAD9F",
"-@	c #DF9B8A",
";@	c #747673",
">@	c #777875",
",@	c #D0D4CE",
"'@	c #D0D3CE",
")@	c #D0D3CD",
"!@	c #CFD3CD",
"~@	c #CFD2CD",
"{@	c #CFD2CC",
"]@	c #CED2CC",
"^@	c #737572",
"/@	c #767774",
"(@	c #ADB0AB",
"_@	c #CED1CC",
":@	c #CED1CB",
"<@	c #CDD1CB",
"[@	c #ABAEA9",
"}@	c #727571",
"|@	c #747672",
"1@	c #757673",
"2@	c #ACAEAA",
"3@	c #ACAEA9",
"4@	c #737571",
"5@	c #AAACA7",
"6@	c #AAACA8",
"                                                                                                ",
"                                                                                                ",
"        . . . . . . . . . . . . . . . + + . . + + . . + . + + . . . + + . . . . . . . .         ",
"      @ . . . . . . . . . . . . . . . . . . # . . . . . . . . . # # . . . # . # . . . . $       ",
"    . . % & * * * * * * * * * * * * * * * * * * * * * * * * * * * * * * * * * * * * & . . .     ",
"    . # & * * * * * * * * * * * * * * * * * * * * * * * * * * * * * * * * * * * * * * & . .     ",
"    . . * * * * * * * * * * * * * * * * * * * * * * * * * * * * * * * * * * * * * = * * . .     ",
"    . . * * * * - ; * * * * * * * * * * * * * * * * * * * * * * * = * * * * = * * * * * . .     ",
"    . . * * * * > , ' * * * * * * * * * * * * * * * * * * * * * * * * * ) ) ) ) ) ) ) ) . .     ",
"    . . * * * * > ! ' * * * * * * * * * * * * * * * * * * * * * * * = ) = ~ { ~ ] { { { + +     ",
"    . # * * * * ^ ! ' * * * * * * * * * * * * * = * * * * * * * * = = { { / ( ( ( ( ( / _ _     ",
"    . . * * * * ^ ! ' * * * * * * * * * * * * * * * * = = ) ) ~ ~ { { / : < [ [ [ [ [ < } }     ",
"    . . * * * * ^ ! ' * * | 1 ; 2 * * * * * = * = ) ~ ) = ~ ~ ] / ( : < 3 4 5 6 5 5 4 4 7 7     ",
"    . . * * * * ^ ! ' * 1 8 2 ^ 9 0 a * * ) ) = ~ ~ ] { / / ( ( b < 3 4 6 c c c c c c c d d     ",
"    + . = = * * e ! a - f - * * - 0 8 g ) ~ ] / ( : b < < [ [ 3 3 4 5 6 c c c c c c c c d d     ",
"    + . ) = ) ) h i j k ; * ) ) ) ) e l m n : < [ o 4 4 4 5 5 6 6 6 c c c c c c c c c c d d     ",
"    _ + ~ ~ ~ ) p q h r h ) = ~ ~ { { s t u v 4 6 c c c c c c c c c c c c c c c c c c c d d     ",
"    } w ( / x { y z A B n { / / / ( : < [ C D E c c c c c c c c c c c c c c c c c c c c d d     ",
"    7 F [ < < < G H I J b b < < < [ 3 o 4 6 K L M N c c c c c c c c c c c c c c c c c c d d     ",
"    d d 4 4 4 4 O P Q R o o 4 4 4 4 5 6 6 c c c E S T c c c c c c c c c c c c c c c c c d d     ",
"    d d c c c c U V W 6 c c c 6 c c c c c c c c c X L S Y c c c c c c c c c c c c c c c d d     ",
"    d d c c c c U Z c c c c c c c c c ` ` c c c c c  ...L +. .c c c c c c c c c c c c c d d     ",
"    d d c c c c U Z c c c c c c c c c c c c c c c c c c U S S +.c c c c c c c c c c c c d d     ",
"    d d c c c c U Z c c c c c c c c c c c c c c c c c c c c W @.S #.c c c c c c c c c c d d     ",
"    d d c c c c $.%.&.&.&.&.&.&.&.&.*.*.=.*.*.*.*.*.*.&.c c c  .W -.L ;.c c c c c c c c d d     ",
"    d d &.*.*.*.>.,.'.'.'.'.'.'.'.'.).).).!.~.~.~.~.~.~.~.'.*.&.`  .Z S K c c c c c c c d d     ",
"    {.].~.~.~.~.^./.(.(._.:.:.:.:.:.:.<.<.<.<.<.[.[.[.[.[.}.}.[.<.'.c T S  .c c c c c c d d     ",
"    |.1.[.[.[.[.2.3.}.}.}.4.5.5.5.5.6.6.6.6.6.6.7.8.9.9.9.9.9.9.9.0.9.<.a.V b.c c c c c d d     ",
"    c.d.7.9.8.9.e.f.9.9.9.9.g.g.h.h.h.h.h.h.h.h.h.i.i.j.j.j.j.j.j.j.j.k.l.m.n.6.}.:.:.:.|.|.    ",
"    o.p.q.i.j.j.r.s.j.j.j.j.j.t.k.k.k.k.k.k.k.k.k.k.k.u.v.v.v.v.v.v.v.v.v.w.x.y.y.z.y.y.A.B.    ",
"    C.D.k.u.v.v.E.F.v.v.v.v.v.v.G.z.y.y.y.y.y.y.y.y.H.H.I.J.J.J.J.J.J.J.K.L.M.N.O.O.O.O.P.Q.    ",
"    B.A.y.y.H.H.R.S.J.J.J.J.J.K.K.K.K.T.O.O.O.O.O.O.O.U.U.U.V.V.W.W.W.W.X.X.Y.Z.X.X.`.`. +.+    ",
"    Q.P.O.O.U.U.++@+V.W.V.W.W.W.X.X.X.X.X.#+#+`.`.$+$+$+$+$+$+$+$+%+&+&+&+&+*+=+&+&+-+;+>+,+    ",
"    .+,+$+$+$+$+'+)+%+%+!+&+&+&+&+&+&+&+-+;+;+~+~+~+~+~+~+~+~+{+{+]+^+^+^+^+/+(+^+^+_+_+:+<+    ",
"    ,+<+~+~+~+~+[+=+~+{+{+]+^+^+^+^+^+^+^+^+_+_+}+}+}+}+}+}+}+}+}+}+|+1+2+2+2+3+4+2+2+2+5+:+    ",
"    <+6+}+}+}+}+7+8+}+}+}+|+1+2+2+2+2+2+2+2+2+2+2+9+9+0+0+0+0+0+0+0+a+b+b+b+c+d+e+c+c+c+f+g+    ",
"    :+g+9+0+0+0+h+i+0+0+0+a+b+b+c+c+c+c+c+c+c+j+j+k+k+k+l+l+l+l+l+l+m+m+m+n+n+o+p+q+q+q+r+f+    ",
"    g+f+j+j+k+k+s+t+l+l+l+l+m+m+m+n+n+q+q+q+q+q+u+u+u+v+v+v+v+w+x+x+x+x+x+x+x+y+z+A+B+B+C+r+    ",
"    f+r+u+u+u+u+D+E+w+w+x+x+x+x+x+x+x+F+F+G+B+B+B+B+B+B+B+B+H+H+I+J+J+J+J+J+J+K+L+M+N+N+O+C+    ",
"    r+C+P+P+P+P+Q+R+H+J+J+J+J+J+J+K+K+K+S+N+N+N+N+N+N+N+N+T+T+U+V+V+V+V+V+V+V+V+W+X+Y+Z+`+O+    ",
"    C+O+ @ @ @ @.@+@T+T+V+V+V+V+V+V+V+V+@@#@#@$@$@$@$@$@$@$@%@%@&@&@&@*@*@*@*@*@*@=@-@-@;@`+    ",
"    >@`+$@$@$@$@$@$@$@%@&@&@*@*@*@*@*@*@*@*@,@'@'@)@)@)@)@)@)@)@!@~@~@~@~@{@{@{@]@]@]@]@^@;@    ",
"    /@;@(@)@)@)@)@)@)@!@~@~@~@{@{@{@{@{@{@]@]@]@]@_@_@_@_@:@:@:@:@:@:@<@<@<@<@<@<@<@<@[@}@|@    ",
"    1@^@,+2@_@_@_@:@:@:@:@:@:@:@:@:@:@<@<@<@<@<@<@<@<@<@<@<@<@<@<@<@<@<@:@:@:@:@:@:@3@4@4@;@    ",
"      5@}@4@}@}@}@}@}@}@}@}@}@}@}@}@}@4@4@4@4@4@4@4@4@4@4@4@4@4@4@4@4@4@4@4@4@4@4@4@4@4@6@      ",
"        ;@;@;@;@;@;@;@;@;@;@;@;@;@;@;@;@;@;@;@;@|@;@;@;@;@;@;@;@;@;@;@;@;@;@;@;@;@;@;@;@        ",
"                                                                                                ",
"                                                                                                "};
