/* XPM */
static char * icon_gui_32_xpm[] = {
"32 32 320 2",
"  	c None",
". 	c #8C8C8C",
"+ 	c #8C8C8A",
"@ 	c #ADADAA",
"# 	c #979796",
"$ 	c #A1A1A0",
"% 	c #999998",
"& 	c #9F9F9C",
"* 	c #CBCBCA",
"= 	c #F1F1F0",
"- 	c #F5F5F4",
"; 	c #F3F3F2",
"> 	c #DBDBDA",
", 	c #A3A3A2",
"' 	c #FCFCFB",
") 	c #FCF7F5",
"! 	c #FCE4DE",
"~ 	c #FBFBFA",
"{ 	c #C0C0BF",
"] 	c #8C8C8B",
"^ 	c #FCCAC0",
"/ 	c #FF002A",
"( 	c #FCE0DA",
"_ 	c #FBFBF9",
": 	c #C4C4C2",
"< 	c #FCB2A4",
"[ 	c #FCD3CB",
"} 	c #FAFAF9",
"| 	c #FAFAF8",
"1 	c #FAFAF7",
"2 	c #C3C3C1",
"3 	c #8B8B89",
"4 	c #FCB1A1",
"5 	c #FCD2CA",
"6 	c #FCF3F1",
"7 	c #FCF4F1",
"8 	c #FCF9F8",
"9 	c #F9F9F7",
"0 	c #F9F9F5",
"a 	c #F8F8F4",
"b 	c #F7F7F4",
"c 	c #C1C1BE",
"d 	c #898988",
"e 	c #FCC1B6",
"f 	c #FCB2A3",
"g 	c #FCF4F2",
"h 	c #F9F9F6",
"i 	c #F8F8F5",
"j 	c #F7F7F3",
"k 	c #F6F6F2",
"l 	c #F5F5F0",
"m 	c #BFBFBB",
"n 	c #888886",
"o 	c #F4F4F3",
"p 	c #FCB3A6",
"q 	c #FCBAAD",
"r 	c #FC856F",
"s 	c #FC937F",
"t 	c #FBD2C9",
"u 	c #FBF9F7",
"v 	c #F6F6F1",
"w 	c #F5F5EF",
"x 	c #BFBFBA",
"y 	c #888885",
"z 	c #F4F4F2",
"A 	c #FCBEB1",
"B 	c #FD475C",
"C 	c #FC795F",
"D 	c #FBD9D2",
"E 	c #FBF6F4",
"F 	c #FBCBC1",
"G 	c #FC816A",
"H 	c #FAAA9A",
"I 	c #F8EBE6",
"J 	c #8A8A88",
"K 	c #9F9F9D",
"L 	c #F2F2F0",
"M 	c #FAC2B6",
"N 	c #FC8C76",
"O 	c #FAEEEC",
"P 	c #F9E1DA",
"Q 	c #F99F8D",
"R 	c #F98C75",
"S 	c #F5DED5",
"T 	c #F5F3EC",
"U 	c #9D9D9B",
"V 	c #F0F0EC",
"W 	c #F8C1B3",
"X 	c #F9B8AA",
"Y 	c #F7F6F3",
"Z 	c #F5F2EE",
"` 	c #F7B9AB",
" .	c #F6B5A5",
"..	c #9D9D99",
"+.	c #EEEEE9",
"@.	c #F6C1B2",
"#.	c #FA785D",
"$.	c #F5E3DD",
"%.	c #F5DED4",
"&.	c #F8957F",
"*.	c #F8947D",
"=.	c #F5F4EE",
"-.	c #EEEEE8",
";.	c #F6C2B4",
">.	c #F6C8BC",
",.	c #F5F1EB",
"'.	c #F6CEC2",
").	c #F5CBBF",
"!.	c #F5EBE5",
"~.	c #F6C2B3",
"{.	c #F5DFD5",
"].	c #F4F4EE",
"^.	c #F4F3ED",
"/.	c #F6BBAB",
"(.	c #F5CFC2",
"_.	c #F5EFE8",
":.	c #EDEDE7",
"<.	c #F5C2B3",
"[.	c #F3DED4",
"}.	c #F3F3ED",
"|.	c #F2F3ED",
"1.	c #F2F3EC",
"2.	c #F2F2EC",
"3.	c #F4F2EC",
"4.	c #F5D8CE",
"5.	c #F5E2DA",
"6.	c #868684",
"7.	c #9B9B97",
"8.	c #EBEBE5",
"9.	c #F1F1EB",
"0.	c #F3C0B1",
"a.	c #F1DCD2",
"b.	c #F0F0EB",
"c.	c #F0F0EA",
"d.	c #EFF0EA",
"e.	c #EFEFE9",
"f.	c #F1E7DF",
"g.	c #F4BDAE",
"h.	c #F6B4A3",
"i.	c #F5E7DE",
"j.	c #848482",
"k.	c #999995",
"l.	c #E7E8E2",
"m.	c #F1BEAF",
"n.	c #EFDAD0",
"o.	c #EDEEE8",
"p.	c #EDEDE8",
"q.	c #ECEDE7",
"r.	c #ECECE6",
"s.	c #EBECE6",
"t.	c #ECECE7",
"u.	c #F0C0B3",
"v.	c #F7A38F",
"w.	c #BEBEB9",
"x.	c #878785",
"y.	c #828280",
"z.	c #969793",
"A.	c #E4E5DF",
"B.	c #EFBBAD",
"C.	c #ECD7CD",
"D.	c #EAEBE5",
"E.	c #EAEAE5",
"F.	c #E9EAE4",
"G.	c #E8E9E4",
"H.	c #E8E9E3",
"I.	c #E8E5DF",
"J.	c #F09C89",
"K.	c #ECD5CC",
"L.	c #B7B7B3",
"M.	c #828380",
"N.	c #82827E",
"O.	c #959691",
"P.	c #E2E2DC",
"Q.	c #E7E9E3",
"R.	c #ECB9AB",
"S.	c #E9D4CA",
"T.	c #E6E8E2",
"U.	c #E6E7E1",
"V.	c #E5E7E1",
"W.	c #E5E6E1",
"X.	c #E5E6E0",
"Y.	c #E8C8BB",
"Z.	c #ECA493",
"`.	c #E4E4DE",
" +	c #B2B2AE",
".+	c #80807C",
"++	c #93938F",
"@+	c #DFE0DA",
"#+	c #E4E6E0",
"$+	c #EAB7A9",
"%+	c #E6D2C8",
"&+	c #E4E5E0",
"*+	c #E3E5DF",
"=+	c #E3E4DF",
"-+	c #E3E4DE",
";+	c #E2E4DE",
">+	c #E2E3DE",
",+	c #E2E3DD",
"'+	c #E1DFD9",
")+	c #EF8771",
"!+	c #E2DCD5",
"~+	c #E1E2DD",
"{+	c #AFB0AB",
"]+	c #7D7D7B",
"^+	c #7E7E7C",
"/+	c #90918E",
"(+	c #DBDDD7",
"_+	c #E1E3DD",
":+	c #E7B5A6",
"<+	c #E3CFC5",
"[+	c #E1E2DC",
"}+	c #E0E2DC",
"|+	c #E0E1DC",
"1+	c #E0E1DB",
"2+	c #DFE1DB",
"3+	c #DEE0DB",
"4+	c #DEDFD9",
"5+	c #E7AA99",
"6+	c #E0D4CB",
"7+	c #DEE0DA",
"8+	c #ADAEAA",
"9+	c #7C7C79",
"0+	c #7C7C7A",
"a+	c #8F8F8C",
"b+	c #D8DAD4",
"c+	c #E5B2A4",
"d+	c #E1CDC4",
"e+	c #DEDFDA",
"f+	c #DDDFD9",
"g+	c #DCDED9",
"h+	c #DCDED8",
"i+	c #DBDDD8",
"j+	c #E0C4B9",
"k+	c #E4AC9D",
"l+	c #AAACA7",
"m+	c #797B78",
"n+	c #7A7C78",
"o+	c #8D8E8A",
"p+	c #D5D7D2",
"q+	c #E3B1A2",
"r+	c #DFCAC1",
"s+	c #DADDD7",
"t+	c #DADCD7",
"u+	c #DADCD6",
"v+	c #D9DCD6",
"w+	c #D9DBD6",
"x+	c #D9DBD5",
"y+	c #D8DBD5",
"z+	c #DBCBC2",
"A+	c #E88D79",
"B+	c #A8AAA5",
"C+	c #787977",
"D+	c #787A76",
"E+	c #8B8C88",
"F+	c #D4CCC5",
"G+	c #DAD1CB",
"H+	c #E2A798",
"I+	c #DBC7BE",
"J+	c #D7DAD4",
"K+	c #D7D9D4",
"L+	c #D7D9D3",
"M+	c #D6D9D3",
"N+	c #D6D8D3",
"O+	c #D5D8D2",
"P+	c #D5D5CF",
"Q+	c #E5927F",
"R+	c #D9C1B8",
"S+	c #A6A49E",
"T+	c #777875",
"U+	c #787876",
"V+	c #8C7B74",
"W+	c #D9C5BD",
"X+	c #D4D7D1",
"Y+	c #D4D6D1",
"Z+	c #D3D6D0",
"`+	c #D3D5D0",
" @	c #D2D5D0",
".@	c #D2D5CF",
"+@	c #DBB2A5",
"@@	c #ED664B",
"#@	c #AE7B6E",
"$@	c #757773",
"%@	c #767674",
"&@	c #897C75",
"*@	c #E17B65",
"=@	c #E9785F",
"-@	c #E87A61",
";@	c #E19583",
">@	c #D4CDC7",
",@	c #D1D4CF",
"'@	c #D1D4CE",
")@	c #D0D3CE",
"!@	c #D0D3CD",
"~@	c #CFD2CD",
"{@	c #CFD2CC",
"]@	c #CFD0CA",
"^@	c #D5B4A9",
"/@	c #DBA192",
"(@	c #A3928B",
"_@	c #737572",
":@	c #747672",
"<@	c #7E807D",
"[@	c #B6B9B4",
"}@	c #CED2CC",
"|@	c #CED1CC",
"1@	c #CED1CB",
"2@	c #CDD1CB",
"3@	c #C0C3BE",
"4@	c #8E918D",
"5@	c #727571",
"6@	c #848583",
"7@	c #888A86",
"8@	c #9C9F9B",
"9@	c #A0A39E",
"0@	c #9EA19C",
"a@	c #8F918C",
"b@	c #7F817D",
"c@	c #737673",
"d@	c #737571",
"e@	c #848682",
"                                                                ",
"        . . . . . . . . + + + + + + + + + + + + + . . . .       ",
"    @ # $ $ $ $ $ $ $ $ $ $ $ $ $ $ $ $ $ $ $ $ $ $ $ $ % &     ",
"    # * = - - - - - - - - - - - - - - - - - - - - - - ; > , .   ",
"  . $ = ' ) ! ' ' ' ' ' ' ' ' ' ' ' ' ' ' ' ~ ' ' ~ ' ~ ~ { ]   ",
"  . $ - ' ^ / ( ' ' ' ' ' ' ' ' ' ' ' ' ' ~ ~ ~ ~ _ ~ _ ~ : ]   ",
"  . $ - ' < / [ ' ' ' ' ' ' ' ' ~ ' ' ' ' ' ~ } } | 1 1 1 2 3   ",
"  . $ - ' 4 / 5 ' 6 7 8 ' ' ' ~ ~ ~ ~ ~ ~ } | 9 0 a b b b c d   ",
"  . $ - ' 4 / 5 e / / f g ' ~ ~ _ _ } | | h i j k l l l l m n   ",
"  + $ o ~ p / q / r s / / t u | 9 h i a b j v l w w w w w x y   ",
"  + $ z _ A / B C D E F G / H I k v v l l l w w w w w w w x y   ",
"  J K L 9 M / / N O 1 h P Q / R S T w w w w w w w w w w w x y   ",
"  n U V j W / / X Y j j k Z ` / /  .w w w w w w w w w w w x y   ",
"  n ..+.l @./ #.$.l l w w w w %.&./ *.%.=.w w w w w w w w x y   ",
"  n ..-.w ;./ >.w w w w w w w w ,.'./ / ).!.w w w w w w w x y   ",
"  n ..-.w ~./ {.].].].].].].].].].^.%././ / (._.w w w w w x y   ",
"  n ..:.].<./ [.}.}.}.}.|.|.1.2.2.2.}.3.4.R / '.5.w w w w x y   ",
"  6.7.8.9.0./ a.b.c.c.c.c.d.d.d.e.e.e.d.c.f.g./ h.i.w w w x y   ",
"  j.k.l.-.m./ n.o.p.:.:.:.q.q.q.q.r.r.s.s.r.t.u./ v.}.}.].w.x.  ",
"  y.z.A.8.B./ C.D.D.E.F.F.F.F.F.F.F.G.H.H.H.H.I.J./ K.D.s.L.M.  ",
"  N.O.P.Q.R./ S.l.l.l.T.T.U.U.U.U.U.V.V.W.X.X.X.Y./ Z.`.A. +.+  ",
"  .+++@+#+$+/ %+&+A.A.*+*+*+=+-+-+-+;+;+;+;+>+,+'+)+/ !+~+{+]+  ",
"  ^+/+(+_+:+/ <+~+[+[+}+}+}+}+|+1+2+2+2+2+2+2+3+4+5+/ 6+7+8+9+  ",
"  0+a+b+7+c+/ d+7+e+f+f+f+f+f+f+f+g+h+h+h+h+h+i+i+j+/ k+(+l+m+  ",
"  n+o+p+i+q+/ r+(+s+s+t+t+u+u+u+u+v+w+w+w+x+x+y+y+z+/ A+b+B+C+  ",
"  D+E+F+G+H+/ I+b+J+J+J+J+K+L+L+M+M+M+M+N+N+O+O+O+P+Q+/ R+S+T+  ",
"  U+V+/ / / / W+X+X+X+X+X+Y+Y+Z+Z+Z+Z+Z+`+`+ @.@.@.@+@@@/ #@$@  ",
"  %@&@*@=@-@;@>@,@'@'@'@'@'@'@)@)@!@!@!@!@!@~@~@~@{@]@^@/@(@_@  ",
"  :@<@[@~@~@{@{@{@{@{@{@{@}@}@|@|@1@1@1@1@2@2@2@2@2@2@2@3@4@5@  ",
"    6@7@8@9@9@9@9@9@9@9@9@9@9@9@9@9@9@9@9@9@9@9@9@9@9@0@a@b@    ",
"      c@5@5@5@5@5@5@5@5@5@d@d@d@d@d@d@d@d@d@d@d@d@d@d@d@d@e@    ",
"                                                                "};
