/* XPM */
static char * icon_gui_64_xpm[] = {
"64 64 483 2",
"  	c None",
". 	c #D4D4D1",
"+ 	c #D5D5D2",
"@ 	c #E3E3E0",
"# 	c #E9E9E6",
"$ 	c #E7E7E4",
"% 	c #DFDFDC",
"& 	c #D4D4D2",
"* 	c #F6F6F3",
"= 	c #EFEFEC",
"- 	c #DBDBD8",
"; 	c #D5D5D1",
"> 	c #E1E1DE",
", 	c #F5E7E2",
"' 	c #F6F6F2",
") 	c #F5F5F2",
"! 	c #F2B9AA",
"~ 	c #EF7659",
"{ 	c #F5F5F1",
"] 	c #E0E0DD",
"^ 	c #D3D3D0",
"/ 	c #F2AD9B",
"( 	c #ED4B25",
"_ 	c #F5EEEA",
": 	c #F4F4F1",
"< 	c #F4F4F0",
"[ 	c #F4F4EF",
"} 	c #F3F3EF",
"| 	c #D2D2D0",
"1 	c #F3AC9A",
"2 	c #EE461E",
"3 	c #F5EBE6",
"4 	c #F3F3EE",
"5 	c #F2F2EE",
"6 	c #F2F2ED",
"7 	c #DEDEDA",
"8 	c #D2D2CE",
"9 	c #D1D1CE",
"0 	c #F2AA98",
"a 	c #ED3F16",
"b 	c #F5E4DE",
"c 	c #F1F1EC",
"d 	c #F0F0EB",
"e 	c #F0F0EA",
"f 	c #F1F1EB",
"g 	c #DCDCD8",
"h 	c #D0D0CC",
"i 	c #F2A896",
"j 	c #EE3D14",
"k 	c #F4E2DC",
"l 	c #EFEFE9",
"m 	c #EEEEE8",
"n 	c #DBDBD5",
"o 	c #CFCFCA",
"p 	c #CECECA",
"q 	c #F2A895",
"r 	c #EE3B11",
"s 	c #F5DFD7",
"t 	c #F4E8E3",
"u 	c #EDEDE7",
"v 	c #EDEDE6",
"w 	c #DADAD4",
"x 	c #CECEC8",
"y 	c #CDCDC8",
"z 	c #F0A593",
"A 	c #ED370D",
"B 	c #F4D9D1",
"C 	c #F3C8BD",
"D 	c #F06242",
"E 	c #EE5431",
"F 	c #EF6444",
"G 	c #F1AC9B",
"H 	c #EFEFEA",
"I 	c #D9D9D2",
"J 	c #CDCDC7",
"K 	c #CCCCC7",
"L 	c #F1A492",
"M 	c #EE370C",
"N 	c #F3D6CD",
"O 	c #F5F0EC",
"P 	c #EE5B39",
"Q 	c #EF7254",
"R 	c #F4C9BD",
"S 	c #F08268",
"T 	c #EE5635",
"U 	c #F4D3C9",
"V 	c #EEEEE7",
"W 	c #CCCCC6",
"X 	c #D4D4D0",
"Y 	c #F1A491",
"Z 	c #ED340A",
"` 	c #F3CEC4",
" .	c #F1947D",
"..	c #EE5C3A",
"+.	c #F4DFD7",
"@.	c #F06C4D",
"#.	c #EE5837",
"$.	c #F1927C",
"%.	c #E8E8E5",
"&.	c #F1A38F",
"*.	c #EC3107",
"=.	c #F4C5B8",
"-.	c #EF5F3D",
";.	c #F29B86",
">.	c #F1A28D",
",.	c #EE5835",
"'.	c #ED6242",
").	c #F1D8D0",
"!.	c #D2D2CD",
"~.	c #D2D2CF",
"{.	c #E7E7E3",
"].	c #F1A28E",
"^.	c #EC3106",
"/.	c #F2BEB0",
"(.	c #F3C7BB",
"_.	c #EE5533",
":.	c #F4E2DD",
"<.	c #F2E0DA",
"[.	c #EE6646",
"}.	c #ED5735",
"|.	c #EF9984",
"1.	c #D0D0CB",
"2.	c #D1D1CD",
"3.	c #E6E6E1",
"4.	c #EF9F8B",
"5.	c #ED2F05",
"6.	c #F2B2A2",
"7.	c #F07B5F",
"8.	c #EF6F51",
"9.	c #F1F1ED",
"0.	c #EF957E",
"a.	c #ED5734",
"b.	c #EE6A4A",
"c.	c #EDE3DB",
"d.	c #CECEC9",
"e.	c #E4E4DF",
"f.	c #F09F8A",
"g.	c #ED3106",
"h.	c #F0A18D",
"i.	c #EE5736",
"j.	c #F0B3A2",
"k.	c #EEEEE9",
"l.	c #EDCCC0",
"m.	c #EC5E3C",
"n.	c #ED5634",
"o.	c #ECA793",
"p.	c #E3E3DD",
"q.	c #EE9C87",
"r.	c #ED3207",
"s.	c #EE6445",
"t.	c #ED5836",
"u.	c #F0E9E3",
"v.	c #EC8369",
"w.	c #EC5936",
"x.	c #ED7D61",
"y.	c #EDECE5",
"z.	c #E1E1DB",
"A.	c #EE9984",
"B.	c #EE360B",
"C.	c #EC340B",
"D.	c #EE7C60",
"E.	c #ECAE9C",
"F.	c #EC5734",
"G.	c #EC5C3B",
"H.	c #ECCABE",
"I.	c #E1E1DA",
"J.	c #EC9982",
"K.	c #EC6A4C",
"L.	c #ECD5CC",
"M.	c #ECE5DD",
"N.	c #ED694A",
"O.	c #EB5634",
"P.	c #EC967E",
"Q.	c #EC9881",
"R.	c #ED6846",
"S.	c #ECE7E0",
"T.	c #EDECE6",
"U.	c #ECECE6",
"V.	c #EB947E",
"W.	c #EB6646",
"X.	c #EBD8CD",
"Y.	c #EB9780",
"Z.	c #ECECE5",
"`.	c #EDCFC3",
" +	c #EC6140",
".+	c #EB5532",
"++	c #EB8E75",
"@+	c #EC9680",
"#+	c #EC6846",
"$+	c #ED9982",
"%+	c #EB5533",
"&+	c #ED5835",
"*+	c #EBA390",
"=+	c #EB967E",
"-+	c #EDE3DC",
";+	c #ED8267",
">+	c #EC5532",
",+	c #ECB19F",
"'+	c #EB957E",
")+	c #EC6747",
"!+	c #ECEBE5",
"~+	c #EBEBE5",
"{+	c #EBEBE4",
"]+	c #EBDAD0",
"^+	c #EC785C",
"/+	c #ED5532",
"(+	c #EC6848",
"_+	c #EBDAD1",
":+	c #EC947D",
"<+	c #EAEBE4",
"[+	c #EAEAE4",
"}+	c #EAEAE3",
"|+	c #EBCBBE",
"1+	c #EB6040",
"2+	c #EC5634",
"3+	c #EDA998",
"4+	c #DFE0D9",
"5+	c #EC937C",
"6+	c #EB6747",
"7+	c #E9EAE3",
"8+	c #E9E9E3",
"9+	c #E9E9E2",
"0+	c #E8E9E2",
"a+	c #ED8066",
"b+	c #CBCBC5",
"c+	c #CACAC4",
"d+	c #DDDDD7",
"e+	c #E9917A",
"f+	c #EA6848",
"g+	c #E8E8E2",
"h+	c #E8E8E1",
"i+	c #E7E8E1",
"j+	c #E7E7E1",
"k+	c #EA7D62",
"l+	c #EB5735",
"m+	c #EBDFD7",
"n+	c #C8C8C3",
"o+	c #C9C9C3",
"p+	c #DCDCD6",
"q+	c #E99279",
"r+	c #EA6949",
"s+	c #E7E7E0",
"t+	c #E6E7E0",
"u+	c #E6E6E0",
"v+	c #E6E6DF",
"w+	c #EA5D3C",
"x+	c #EC6E50",
"y+	c #C7C8C2",
"z+	c #C8C8C2",
"A+	c #DBDCD5",
"B+	c #E99078",
"C+	c #E9694A",
"D+	c #E5E6DF",
"E+	c #E5E5DF",
"F+	c #E5E5DE",
"G+	c #E4E5DE",
"H+	c #E5BEB1",
"I+	c #EA5431",
"J+	c #E6BCAE",
"K+	c #C6C7C1",
"L+	c #C7C7C1",
"M+	c #DADBD4",
"N+	c #E89077",
"O+	c #EA6C4E",
"P+	c #E4E4DE",
"Q+	c #E4E4DD",
"R+	c #E3E4DD",
"S+	c #E96C4E",
"T+	c #EA6B4C",
"U+	c #D3D4CE",
"V+	c #C5C6C0",
"W+	c #D9D9D3",
"X+	c #E88F76",
"Y+	c #E86F52",
"Z+	c #E2E3DD",
"`+	c #E2E3DC",
" @	c #E4BAAB",
".@	c #EB522F",
"+@	c #E3CEC3",
"@@	c #E2E2DC",
"#@	c #E1E2DB",
"$@	c #CECFC9",
"%@	c #C3C3BD",
"&@	c #C2C2BD",
"*@	c #C4C5BE",
"=@	c #C4C5BF",
"-@	c #D8D8D2",
";@	c #E78D74",
">@	c #E97256",
",@	c #E1E2DC",
"'@	c #E85B39",
")@	c #E58E77",
"!@	c #E0E1DB",
"~@	c #E0E1DA",
"{@	c #CDCEC8",
"]@	c #C2C3BC",
"^@	c #C2C2BC",
"/@	c #C3C4BD",
"(@	c #C3C4BE",
"_@	c #D7D7D1",
":@	c #E78970",
"<@	c #E87558",
"[@	c #E2E2DB",
"}@	c #E5866E",
"|@	c #E8603F",
"1@	c #E0E0DA",
"2@	c #DFE0DA",
"3@	c #CCCDC7",
"4@	c #C1C2BC",
"5@	c #C1C2BB",
"6@	c #D6D6D0",
"7@	c #E6866D",
"8@	c #E7755A",
"9@	c #E0BFB3",
"0@	c #E94F2B",
"a@	c #DFCDC3",
"b@	c #DFDFD9",
"c@	c #DEDFD9",
"d@	c #DEDFD8",
"e@	c #CBCCC6",
"f@	c #C0C1BB",
"g@	c #C2C2BB",
"h@	c #D5D5CF",
"i@	c #E58369",
"j@	c #E67559",
"k@	c #DEDCD5",
"l@	c #E85331",
"m@	c #E2A491",
"n@	c #DDDED8",
"o@	c #DDDED7",
"p@	c #CACBC5",
"q@	c #BFC0BA",
"r@	c #BEC0BA",
"s@	c #D4D4CE",
"t@	c #DEE0D9",
"u@	c #E58066",
"v@	c #E57458",
"w@	c #DDDFD8",
"x@	c #DCDED7",
"y@	c #E76A4C",
"z@	c #E57559",
"A@	c #DCDDD7",
"B@	c #DCDDD6",
"C@	c #C9CAC4",
"D@	c #BEBFB9",
"E@	c #BDBEB8",
"F@	c #C0C1BA",
"G@	c #D2D4CD",
"H@	c #E67F64",
"I@	c #E67456",
"J@	c #DBDDD6",
"K@	c #E19681",
"L@	c #E85A39",
"M@	c #DBDCD6",
"N@	c #C8C9C3",
"O@	c #BCBDB8",
"P@	c #BEC0B9",
"Q@	c #D1D2CC",
"R@	c #E57D62",
"S@	c #E57256",
"T@	c #DADCD5",
"U@	c #DADBD5",
"V@	c #DCBDB1",
"W@	c #E94E2A",
"X@	c #DBCBC0",
"Y@	c #D9DBD4",
"Z@	c #BCBDB7",
"`@	c #BBBCB7",
" #	c #BDBEB9",
".#	c #BDBFB9",
"+#	c #D0D1CB",
"@#	c #E47B61",
"##	c #E57356",
"$#	c #D9DAD4",
"%#	c #D8D5CE",
"&#	c #E8522E",
"*#	c #DEA797",
"=#	c #D9DAD3",
"-#	c #D8DAD3",
";#	c #BBBCB6",
">#	c #BBBDB7",
",#	c #BCBEB8",
"'#	c #CFD0CA",
")#	c #E37B5F",
"!#	c #D8D9D3",
"~#	c #E46647",
"{#	c #E37559",
"]#	c #D7D9D2",
"^#	c #BABBB6",
"/#	c #BABBB5",
"(#	c #E47A5E",
"_#	c #E37255",
":#	c #D7D9D3",
"<#	c #D7D8D2",
"[#	c #DF9784",
"}#	c #E75331",
"|#	c #D6D6CF",
"1#	c #D6D8D1",
"2#	c #C4C6BF",
"3#	c #B9BBB5",
"4#	c #B8BBB5",
"5#	c #D8D7D0",
"6#	c #D7D7D0",
"7#	c #E4775B",
"8#	c #E47356",
"9#	c #D6D8D2",
"0#	c #D6D7D1",
"a#	c #D5D7D1",
"b#	c #D5D0C9",
"c#	c #E75431",
"d#	c #E36547",
"e#	c #DBA696",
"f#	c #DAB0A1",
"g#	c #D9B7AA",
"h#	c #D9BAAE",
"i#	c #D8BCB0",
"j#	c #D5D7D0",
"k#	c #C3C5BF",
"l#	c #B8BAB4",
"m#	c #B7BAB3",
"n#	c #D1A79B",
"o#	c #E55B3A",
"p#	c #E74F2C",
"q#	c #E94019",
"r#	c #E1795F",
"s#	c #D5D6D0",
"t#	c #D4D6D0",
"u#	c #D4D6CF",
"v#	c #D9B0A0",
"w#	c #E35E3F",
"x#	c #E74C29",
"y#	c #E84925",
"z#	c #E84B27",
"A#	c #E94A25",
"B#	c #E46748",
"C#	c #D6C2B8",
"D#	c #C1C4BD",
"E#	c #B7B9B3",
"F#	c #B6B8B2",
"G#	c #B9BAB5",
"H#	c #CBCDC6",
"I#	c #DCA390",
"J#	c #DCA290",
"K#	c #D6CEC8",
"L#	c #D3D6CF",
"M#	c #D3D5CF",
"N#	c #D3D5CE",
"O#	c #D2CCC6",
"P#	c #D4CCC4",
"Q#	c #D4CAC2",
"R#	c #D4C6BE",
"S#	c #D5C6BB",
"T#	c #C0C2BC",
"U#	c #B5B7B1",
"V#	c #B7B9B4",
"W#	c #C9CBC5",
"X#	c #D2D4CE",
"Y#	c #D1D4CD",
"Z#	c #B5B6B1",
"`#	c #B6B8B3",
" $	c #C8CAC4",
".$	c #D2D5CE",
"+$	c #D1D3CD",
"@$	c #D1D3CC",
"#$	c #D0D3CC",
"$$	c #B4B6B0",
"%$	c #B3B5B0",
"&$	c #B6B7B2",
"*$	c #C7C9C3",
"=$	c #D2D3CD",
"-$	c #D0D2CC",
";$	c #D0D2CB",
">$	c #CFD2CB",
",$	c #CFD1CB",
"'$	c #B3B5AF",
")$	c #B2B5AE",
"!$	c #B5B6B0",
"~$	c #C6C8C2",
"{$	c #B4B5B0",
"]$	c #B3B5AE",
"^$	c #BBBEB7",
"/$	c #C9CCC5",
"($	c #B2B4AE",
"                                                                                                                                ",
"                                                                                                                                ",
"                                                                                                                                ",
"          . . . . . . . . . . . . . . . . . . . . . . . . . . . . . . . . . . . . . . . . . . . . . . . . . . . . . . +         ",
"        . + + + + + + + + + + + + + + + + + + + + + + + + + + + + + + + + + + + + + + + + + + + + + + + + + + + + + + + .       ",
"      . + + @ # # # # # # # # # # # # # # # # # # # # # # # # # # # # # # # # # # # # # # # # # # # # # # # # # # $ % + + &     ",
"      . + @ * * * * * * * * * * * * * * * * * * * * * * * * * * * * * * * * * * * * * * * * * * * * * * * * * * * * = - + ;     ",
"      . + # * * * * * * * * * * * * * * * * * * * * * * * * * * * * * * * * * * * * * * * * * * * * * * * * * * * * * > + ;     ",
"      . + # * * * * * * * * * * * * * * * * * * * * * * * * * * * * * * * * * * * * * * * * * * * * * * * * * * * * * > + ;     ",
"      . + # * * * * * * * * * * * * * * * * * * * * * * * * * * * * * * * * * * * * * * * * * * * * * * * * * * * * * > + ;     ",
"      . + # * * * * * * * * * * * * * * * * * * * * * * * * * * * * * * * * * * * * * * * * * * * * * * * * * * * * * > + ;     ",
"      . + # * * * * * * * * , * * * * * * * * * * * * * * * * * * * * * * * * * * * * * * * * * * ' ' ) ) ) ) ) ) ) ) > ; ;     ",
"      . + # * * * * * * * ! ~ ) * * * * * * * * * * * * * * * * * * * * * * * * * * * * * * * ' ) ) { { { { { { { { { ] . ^     ",
"      . + # * * * * * * * / ( _ * * * * * * * * * * * * * * * * * * * * * * * * * * * * * * ) ) { : < < [ } } } [ [ < % ^ |     ",
"      . + # * * * * * * * 1 2 3 * * * * * * * * * * * * * * * * * * * * * * * * * * * ' ' ) { < < } 4 5 6 6 6 6 6 6 5 7 8 9     ",
"      . + # * * * * * * * 0 a b * * * * * * * * * * * * * * * * * * * * * * * ' ' ' ) ) { : < } 5 6 c d d e e d d d f g h h     ",
"      . + # * * * * * * * i j k * * * * * * * * * * * * * * * * * * ' ' ) ) ) ) { { { < < } 6 c d e l l m m m m m l l n o p     ",
"      . + # * * * * * * * q r s * * * ) t * * * * * * * * * ' ' ) ) ) { { { < < < } } 4 6 c d e l m u v v v v v u u u w x y     ",
"      . + # * * * * * * * z A B * * C D E F G * * * * * ' ) ) { : < < [ } } 4 5 6 6 c c d H l m u v v v v v v v v v v I J K     ",
"      . + # * * * * * * * L M N * O P Q R S T F U * ' ) { { < [ } 5 6 6 c c f d d e H l l m V u v v v v v v v v v v v I J W     ",
"      X . # ' ' * * * * * Y Z ` *  ...: * * +.@.#.$.) { < } 5 6 c d e H l l l m m m m V u u v v v v v v v v v v v v v I J W     ",
"      ^ ^ %.{ ) ) ) ' ' ' &.*.=.) -.;.' ) ) ) ) >.,.'.).5 c d e l m V V u u u u u v v v v v v v v v v v v v v v v v v I J W     ",
"      !.~.{.< < : { { { { ].^./.(._.:.{ { { : < < <.[.}.|.e l m u v v v v v v v v v v v v v v v v v v v v v v v v v v I J W     ",
"      1.2.3.5 4 } } < < < 4.5.6.7.8.< [ } } } 4 6 9.f 0.a.b.c.v v v v v v v v v v v v v v v v v v v v v v v v v v v v I J W     ",
"      d.o e.c c c 6 6 6 5 f.g.h.i.j.6 6 6 c c c d e l k.l.m.n.o.v v v v v v v v v v v v v v v v v v v v v v v v v v v I J W     ",
"      y d.p.l l H e e d d q.r.s.t.u.d e e e H l l m m V u v v.w.x.y.v v v v v v v v v v v v v v v v v v v v v v v v v I J W     ",
"      K y z.V V m m m m m A.B.C.D.m m m m m m V V u v v v v v E.F.G.H.v v v v v v v v v v v v v v v v v v v v v v v v I J W     ",
"      W J I.v v v v v v v J.( K.L.v v v v v v v v v v v v v v v M.N.O.P.v v v v v v v v v v v v v v v v v v v v v v v I J W     ",
"      W J I.v v v v v v v Q.R.S.v v v v v v v v v T.v v U.v v v v v V.n.W.X.v v v v v v v v v v v v v v v v v v v v v I J W     ",
"      W J I.v v v v v v v Y.R.v v v Z.Z.Z.Z.Z.Z.Z.Z.T.T.Z.Z.Z.Z.Z.v v `. +.+++Z.v v v v v v v v v v v v v v v v v v v I J W     ",
"      W J I.v v v v v v v @+#+Z.v Z.Z.Z.Z.Z.T.T.T.T.T.T.T.T.T.Z.Z.Z.v v v $+%+&+*+y.v v v v v v v v v v v v v v v v v I J W     ",
"      W J I.v v v v v Z.Z.=+#+Z.T.T.T.T.T.Z.Z.Z.Z.Z.Z.Z.Z.Z.Z.Z.Z.Z.Z.Z.v v -+;+>+G.,+v v v v v v v v v v v v v v v v I J W     ",
"      W J I.v v v Z.Z.Z.Z.'+)+Z.Z.Z.Z.Z.!+!+!+!+~+~+~+{+{+{+{+{+{+{+{+{+Z.Z.v v ]+^+/+(+_+v v v v v v v v v v v v v v I J W     ",
"      W J I.Z.Z.Z.{+{+{+{+:+)+{+{+{+{+{+<+<+[+[+[+}+}+}+}+}+}+}+}+}+}+}+}+}+{+Z.Z.v |+1+2+3+v v v v v v v v v v v v v I J W     ",
"      W W 4+{+}+}+}+}+}+}+5+6+}+}+}+}+7+7+7+8+8+9+9+9+9+9+9+9+9+9+9+9+9+0+0+0+9+}+<+Z.Z.a+&+E.v v v v v v v v v v v v I J W     ",
"      b+c+d+9+9+9+9+9+9+9+e+f+0+0+0+0+0+g+g+h+h+h+h+h+h+h+h+h+h+h+h+i+i+i+i+i+j+i+j+i+9+}+k+l+m+v v v v v v v v v v v I J W     ",
"      n+o+p+h+h+h+h+h+h+h+q+r+i+i+i+i+i+j+j+s+s+s+s+s+s+s+s+s+t+t+t+t+t+t+t+t+u+u+u+v+v+v+t+w+x+Z.Z.v v v v v v v v v I J W     ",
"      y+z+A+s+s+s+s+t+t+t+B+C+t+t+t+u+u+v+v+v+v+v+v+v+v+D+D+D+D+D+D+D+D+D+E+E+E+E+E+F+F+F+G+H+I+J+s+0+}+{+Z.Z.v v v v I J W     ",
"      K+L+M+v+v+D+D+D+D+D+N+O+D+D+E+E+E+F+F+F+F+F+G+G+G+G+G+G+G+G+G+G+G+P+P+P+P+P+Q+Q+R+R+R+R+S+T+R+R+R+P+F+v+s+i+i+i+U+z+y+    ",
"      V+V+W+G+G+G+G+G+G+G+X+Y+G+P+P+P+Q+Q+Q+Q+R+R+R+R+R+R+R+R+R+R+R+R+p.p.p.p.Z+`+`+`+`+`+`+`+ @.@+@`+`+`+@@`+@@@@@@#@$@%@&@    ",
"      *@=@-@R+R+R+R+R+R+R+;@>@p.p.p.p.`+`+`+`+`+`+`+`+`+`+`+`+`+`+@@@@@@@@,@#@#@#@#@#@#@#@#@#@#@'@)@#@#@#@z.z.!@!@!@~@{@]@^@    ",
"      /@(@_@`+`+`+`+`+`+`+:@<@@@@@[@#@#@#@#@#@#@#@#@#@#@#@#@#@#@z.z.!@!@!@!@~@~@~@~@~@~@~@~@~@~@}@|@~@~@1@2@2@2@4+4+4+3@4@5@    ",
"      ]@%@6@#@#@#@#@#@#@z.7@8@!@!@~@~@~@~@~@~@~@~@~@~@~@~@~@~@1@2@2@2@2@4+4+4+4+4+4+4+4+4+4+4+4+9@0@a@b@c@c@c@c@d@c@d@e@f@f@    ",
"      g@^@h@~@~@~@~@~@1@1@i@j@4+4+4+4+4+4+4+4+4+4+4+4+4+4+4+4+4+c@c@c@c@d@d@d@d@d@d@d@d@d@d@d@d@k@l@m@n@n@n@n@n@o@n@o@p@q@r@    ",
"      5@4@s@4+4+4+4+t@c@c@u@v@c@d@d@d@d@d@d@d@d@d@d@w@d@w@w@w@w@n@n@n@o@o@o@o@o@o@o@o@o@o@o@x@x@x@y@z@A@A@A@A@B@B@B@B@C@D@E@    ",
"      F@f@G@w@w@w@w@w@n@n@H@I@o@o@o@o@o@o@o@o@o@o@o@x@x@x@A@A@A@A@A@B@B@B@B@B@B@B@J@J@J@J@J@J@J@J@K@L@M@M@M@M@A+A+A+A+N@E@O@    ",
"      P@r@Q@x@x@x@A@A@A@A@R@S@B@B@B@B@B@B@J@J@J@J@J@J@J@M@M@M@M@M@A+A+A+A+A+A+A+T@T@T@T@T@T@T@U@U@V@W@X@U@U@M+M+M+Y@Y@y+Z@`@    ",
"       #.#+#J@J@M@M@M@M@M@@###A+A+A+A+A+A+T@T@T@T@T@T@U@U@U@U@U@U@M+M+M+Y@Y@Y@Y@Y@Y@Y@Y@Y@Y@Y@$#$#%#&#*#$#$#=#=#-#-#-#K+;#;#    ",
"      >#,#'#U@U@U@U@U@U@M+)###M+Y@Y@Y@Y@Y@Y@Y@Y@Y@Y@Y@$#$#$#$#$#=#=#=#-#-#-#-#-#-#-#-#-#-#-#!#!#!#!#~#{#]#]#]#]#]#]#]#V+^#/#    ",
"      ;#Z@$@$#$#$#$#$#$#=#(#_#-#-#-#-#-#-#-#-#-#!#!#!#!#!#!#!#:#]#]#]#]#]#]#]#]#]#]#]#]#]#]#<#<#<#<#[#}#|#1#1#1#1#1#1#2#3#4#    ",
"      ^#;#{@5#5#5#5#5#5#6#7#8#]#]#]#]#]#]#]#]#]#<#<#<#<#9#9#9#1#1#1#1#1#1#1#1#1#1#1#1#0#0#0#a#a#a#a#b#c#d#e#f#g#h#i#j#k#l#m#    ",
"      3#/#n#o#p#p#p#p#p#p#q#r#1#1#1#1#1#1#1#1#0#0#a#a#a#j#a#j#j#j#j#j#j#j#j#j#j#j#j#j#s#s#t#t#t#t#t#u#v#w#x#y#z#A#B#C#D#E#F#    ",
"      l#G#H#I#I#I#I#I#I#I#J#K#j#j#j#j#j#j#j#s#t#t#t#t#t#u#t#u#u#u#u#u#u#u#u#u#u#L#L#M#M#M#M#M#M#N#N#N#N#N#O#P#Q#R#S#N#T#F#U#    ",
"      E#V#W#t#t#u#u#u#u#u#u#u#u#u#u#u#u#M#M#M#M#M#M#M#N#N#N#N#N#N#N#N#N#N#N#N#U+X#X#X#X#X#X#X#G@G@G@G@G@G@G@G@G@G@G@Y#f@Z#Z#    ",
"      F#`# $M#N#N#N#N#N#N#N#N#N#N#N#.$.$X#X#X#X#X#X#X#G@G@G@G@G@G@G@G@G@G@+$+$+$+$+$+$+$+$+$@$@$@$@$@$@$@$#$#$#$#$#$#$q@$$%$    ",
"      U#&$*$G@G@G@G@G@G@G@G@G@G@=$+$+$+$+$+$+$+$+$+$@$@$@$@$@$@$@$#$#$#$#$#$-$-$-$-$-$-$-$-$;$;$;$;$;$;$>$>$>$>$>$>$,$P@'$)$    ",
"      !$Z#~$@$@$@$@$@$@$@$#$#$#$#$#$#$-$-$-$-$-$-$-$;$;$;$;$;$>$>$>$>$>$>$>$,$,$,$,$,$,$,$,$,$,$,$,$,$,$,$,$,$,$,$,$,$.#'$)$    ",
"      {$$$2#;$;$;$;$;$>$>$>$>$>$>$>$>$,$,$,$,$,$,$,$,$,$,$,$,$,$,$,$,$,$,$,$,$,$,$,$,$,$,$,$,$,$,$,$,$,$,$,$,$,$,$,$,$.#'$)$    ",
"      ]$'$^$/$,$,$,$,$,$,$,$,$,$,$,$,$,$,$,$,$,$,$,$,$,$,$,$,$,$,$,$,$,$,$,$,$,$,$,$,$,$,$,$,$,$,$,$,$,$,$,$,$,$,$,$ $l#'$($    ",
"      )$'$'$l#.#.#.#.#.#.#.#.#.#.#.#.#.#.#.#.#.#.#.#.#.#.#.#.#.#.#.#.#.#.#.#.#.#.#.#.#.#.#.#.#.#.#.#.#.#.#.#.#.#.#.#l#'$'$      ",
"        ($'$'$'$'$'$'$'$'$'$'$'$'$'$'$'$'$'$'$'$'$'$'$'$'$'$'$'$'$'$'$'$'$'$'$'$'$'$'$'$'$'$'$'$'$'$'$'$'$'$'$'$'$'$'$'$)$      ",
"          ($)$)$)$)$)$)$)$)$)$)$)$)$)$)$)$)$)$)$)$)$)$)$)$)$)$)$)$)$)$)$)$)$)$)$)$)$)$)$)$)$)$)$)$)$)$)$)$)$)$)$)$)$($          ",
"                                                                                                                                ",
"                                                                                                                                "};
