/* XPM */
static char * icon_gde_32_xpm[] = {
"32 32 415 2",
"  	c None",
". 	c #D5D5D2",
"+ 	c #E6E6E3",
"@ 	c #E6E6E2",
"# 	c #F6F6F3",
"$ 	c #F7F7F4",
"% 	c #FDFDF3",
"& 	c #C6C6F5",
"* 	c #D5D5F5",
"= 	c #E4E4F4",
"- 	c #BBBBF6",
"; 	c #E6E6F4",
"> 	c #FAFAF3",
", 	c #B5B5F6",
"' 	c #F1F1F3",
") 	c #F8F8F5",
"! 	c #E6E6E5",
"~ 	c #F9F9F3",
"{ 	c #6161FA",
"] 	c #9595F8",
"^ 	c #B3B3F6",
"/ 	c #9C9CF7",
"( 	c #7171FA",
"_ 	c #3C3CFC",
": 	c #E0E0F4",
"< 	c #0E0EFE",
"[ 	c #A3A3F7",
"} 	c #F3F3F3",
"| 	c #F6F6F2",
"1 	c #FAFAF7",
"2 	c #E5E5E4",
"3 	c #FCFCF3",
"4 	c #3131FD",
"5 	c #E2E2F4",
"6 	c #0000FF",
"7 	c #AAAAF7",
"8 	c #8585F8",
"9 	c #B6B6F5",
"0 	c #1313FE",
"a 	c #9B9BF6",
"b 	c #FCFCF0",
"c 	c #F5F5F1",
"d 	c #E4E4E1",
"e 	c #D5D5D0",
"f 	c #CBCBC9",
"g 	c #C1CBBE",
"h 	c #82A580",
"i 	c #F2F1FA",
"j 	c #F7F7F3",
"k 	c #DEDEF4",
"l 	c #6363FA",
"m 	c #7070F9",
"n 	c #C4C4F5",
"o 	c #6262F9",
"p 	c #7A7AF7",
"q 	c #FFFFED",
"r 	c #5151F8",
"s 	c #6464F7",
"t 	c #E6E6ED",
"u 	c #F2F2EC",
"v 	c #E2E2DD",
"w 	c #D1D1CE",
"x 	c #E7E7E4",
"y 	c #F6F5F3",
"z 	c #9AA0AD",
"A 	c #9292DC",
"B 	c #A9A9D1",
"C 	c #E0E0EE",
"D 	c #F8F8F1",
"E 	c #F6F6F1",
"F 	c #F5F5F0",
"G 	c #F6F6ED",
"H 	c #F1F1EB",
"I 	c #EFEFEA",
"J 	c #F2F2E7",
"K 	c #F1F1E6",
"L 	c #EEEEE8",
"M 	c #DEDED9",
"N 	c #CFCFC9",
"O 	c #E5E5E3",
"P 	c #F3F3F0",
"Q 	c #F9F9F6",
"R 	c #B7B6B4",
"S 	c #FAFAF5",
"T 	c #B3B2BE",
"U 	c #8887C8",
"V 	c #A4A2A1",
"W 	c #E3E2DF",
"X 	c #F3F3EF",
"Y 	c #F3F3EE",
"Z 	c #F2F2ED",
"` 	c #F1F1EC",
" .	c #F0F0EA",
"..	c #EFEFE9",
"+.	c #EDEDE6",
"@.	c #E5E5E8",
"#.	c #D6D6E9",
"$.	c #DDDDD6",
"%.	c #CDCDC7",
"&.	c #D4D4D1",
"*.	c #E5E5E1",
"=.	c #E8E8E5",
"-.	c #DAD9D7",
";.	c #E9E9E6",
">.	c #A1A09F",
",.	c #FFFFF5",
"'.	c #5453C7",
").	c #E6E6E6",
"!.	c #F2F2EE",
"~.	c #F0F0EB",
"{.	c #EFEFE8",
"].	c #EEEEE7",
"^.	c #EDEDE7",
"/.	c #F4F4E7",
"(.	c #9695C7",
"_.	c #C6C6E2",
":.	c #EEEEE6",
"<.	c #D1D1CD",
"[.	c #E3E3DF",
"}.	c #F4F4F0",
"|.	c #FBFBF7",
"1.	c #ACABA9",
"2.	c #F5F5F2",
"3.	c #F4F4EF",
"4.	c #F9F8F0",
"5.	c #9292C1",
"6.	c #F0F0E6",
"7.	c #8A89DA",
"8.	c #C9C8DD",
"9.	c #E0E0DA",
"0.	c #DFDFDA",
"a.	c #E8E8E3",
"b.	c #B2B1AE",
"c.	c #F1F1ED",
"d.	c #F0F0E9",
"e.	c #B7B7E4",
"f.	c #535179",
"g.	c #ECECE6",
"h.	c #DBDAE1",
"i.	c #4D4A64",
"j.	c #F3F4EB",
"k.	c #DDDDD7",
"l.	c #EDEDE8",
"m.	c #E1E1DA",
"n.	c #C6C5BF",
"o.	c #E1E1DB",
"p.	c #A3A29E",
"q.	c #F2F2E8",
"r.	c #9A99BC",
"s.	c #F4F4E9",
"t.	c #E3E3E9",
"u.	c #716FC6",
"v.	c #F7F6EB",
"w.	c #F1F1EA",
"x.	c #F4F4ED",
"y.	c #A7A6A2",
"z.	c #D6D5DA",
"A.	c #A4A4D5",
"B.	c #BFBFD4",
"C.	c #CFCFDA",
"D.	c #EBEBE4",
"E.	c #D5D4CE",
"F.	c #DDDCD6",
"G.	c #9E9D99",
"H.	c #8281C9",
"I.	c #F3F2E8",
"J.	c #F5F5EA",
"K.	c #4C4A6C",
"L.	c #E6E5DD",
"M.	c #ECEDE6",
"N.	c #E2E2DC",
"O.	c #D5D5CE",
"P.	c #DEDED7",
"Q.	c #B1AFAB",
"R.	c #ECECE5",
"S.	c #ECECE4",
"T.	c #ECEBE4",
"U.	c #EBECE5",
"V.	c #B2B1C8",
"W.	c #DEDEDC",
"X.	c #EAEAE3",
"Y.	c #ABABDD",
"Z.	c #C9C8D7",
"`.	c #CCCCC6",
" +	c #DADBD4",
".+	c #E9EAE4",
"++	c #E9E9E3",
"@+	c #EBEBE5",
"#+	c #A5A4A0",
"$+	c #EAEAE2",
"%+	c #E9EAE2",
"&+	c #E8E9E2",
"*+	c #E8EAE2",
"=+	c #E9E9E2",
"-+	c #DFDFD5",
";+	c #6A6895",
">+	c #E9E8E1",
",+	c #E8E8E1",
"'+	c #F1F1E8",
")+	c #8B8AC3",
"!+	c #EEEEE9",
"~+	c #C8C9C3",
"{+	c #D8D9D2",
"]+	c #E8E8E2",
"^+	c #DCDCD5",
"/+	c #B8B7B2",
"(+	c #CECFC9",
"_+	c #989793",
":+	c #E6E8E0",
"<+	c #E6E6E1",
"[+	c #E7E6DF",
"}+	c #6868BE",
"|+	c #EBECE1",
"1+	c #E6E6E0",
"2+	c #E5E6E0",
"3+	c #8F8D8E",
"4+	c #A9A9BF",
"5+	c #E9E8E2",
"6+	c #EAEBE4",
"7+	c #DEDDD7",
"8+	c #CECDC7",
"9+	c #C6C7C2",
"0+	c #D6D6D1",
"a+	c #E5E6DF",
"b+	c #E6E5DF",
"c+	c #E7E7E0",
"d+	c #E5E6DE",
"e+	c #E4E5DE",
"f+	c #E4E6DE",
"g+	c #E4E4DE",
"h+	c #E5E5DE",
"i+	c #E4E4DD",
"j+	c #D2D2D4",
"k+	c #AFAFC9",
"l+	c #E4E5DD",
"m+	c #E4E5DF",
"n+	c #8180BE",
"o+	c #E8E9DE",
"p+	c #E3E4DD",
"q+	c #E2E3DC",
"r+	c #E2E4DD",
"s+	c #D3D4CE",
"t+	c #C4C5BF",
"u+	c #C4C5C0",
"v+	c #D4D4CE",
"w+	c #DBDBD5",
"x+	c #A8A8A4",
"y+	c #E3E3DC",
"z+	c #E2E3DD",
"A+	c #E1E2DE",
"B+	c #6565C6",
"C+	c #EBEDDF",
"D+	c #D9D9D6",
"E+	c #8485CA",
"F+	c #E2E3DB",
"G+	c #E0E2DB",
"H+	c #E1E2DA",
"I+	c #E0E2DA",
"J+	c #D2D2CB",
"K+	c #C2C3BC",
"L+	c #C2C3BE",
"M+	c #D1D2CC",
"N+	c #E1E2DB",
"O+	c #D4D5CE",
"P+	c #B3B3AD",
"Q+	c #C9C9C3",
"R+	c #93938F",
"S+	c #E0E1DB",
"T+	c #E0E0D9",
"U+	c #DFE0DA",
"V+	c #A7A7B7",
"W+	c #7170A8",
"X+	c #B4B4A8",
"Y+	c #6565A4",
"Z+	c #E3E4DA",
"`+	c #DEDFDA",
" @	c #DEE0D8",
".@	c #DFE0D8",
"+@	c #CED0CA",
"@@	c #BFC1BC",
"#@	c #C0C2BC",
"$@	c #D0D0CA",
"%@	c #DEDFD8",
"&@	c #E0E1D9",
"*@	c #E3E5DE",
"=@	c #9C9C98",
"-@	c #DEE0D9",
";@	c #DEDED8",
">@	c #DDDED8",
",@	c #DDDED7",
"'@	c #DFE1D9",
")@	c #8A8BCA",
"!@	c #7172C1",
"~@	c #A2A3D9",
"{@	c #DDDED6",
"]@	c #DCDED6",
"^@	c #DBDED6",
"/@	c #DBDED7",
"(@	c #DCDDD6",
"_@	c #CCCDC8",
":@	c #BEBEBA",
"<@	c #BEC0BA",
"[@	c #CECEC8",
"}@	c #DFE1DA",
"|@	c #C8C9C2",
"1@	c #D2D6CC",
"2@	c #91A38D",
"3@	c #D4DACF",
"4@	c #D7DCD2",
"5@	c #E0E1DA",
"6@	c #D8DAD3",
"7@	c #E0E2DC",
"8@	c #D9DAD3",
"9@	c #DFE0D9",
"0@	c #DEE1D9",
"a@	c #DDDFD8",
"b@	c #C9D2C4",
"c@	c #DBDCD6",
"d@	c #CBCBC6",
"e@	c #BCBCB7",
"f@	c #BDBEB7",
"g@	c #CBCDC6",
"h@	c #C7C9C4",
"i@	c #9FA09C",
"j@	c #ABB2A7",
"k@	c #779075",
"l@	c #ABABA7",
"m@	c #889F84",
"n@	c #8DA28A",
"o@	c #A9AAA5",
"p@	c #A8AAA4",
"q@	c #AAABA6",
"r@	c #9B9B97",
"s@	c #A7A9A4",
"t@	c #A5A6A2",
"u@	c #A1A29E",
"v@	c #A6A7A2",
"w@	c #9D9E99",
"x@	c #A7A8A3",
"y@	c #A8A8A3",
"z@	c #9F9F9B",
"A@	c #A8A9A4",
"B@	c #98A695",
"C@	c #89AA85",
"D@	c #D1D2CD",
"E@	c #C9CAC4",
"F@	c #B9BCB6",
"G@	c #BABCB6",
"H@	c #C9CBC4",
"I@	c #D7DAD2",
"J@	c #D8DAD2",
"K@	c #D8D9D3",
"L@	c #D9DAD4",
"M@	c #DADBD5",
"N@	c #BEBFBA",
"O@	c #979793",
"P@	c #B2B2AD",
"Q@	c #B3B4AE",
"R@	c #D7D9D2",
"S@	c #BDBEB9",
"T@	c #D9DBD5",
"U@	c #D6D8D2",
"V@	c #D6D8D1",
"W@	c #C1C2BC",
"X@	c #9D9E9A",
"Y@	c #979692",
"Z@	c #D9DBD4",
"`@	c #CCCEC8",
" #	c #8D8C88",
".#	c #BBBDB7",
"+#	c #C6C8C1",
"@#	c #B8BAB4",
"##	c #C7C9C2",
"$#	c #D6D8D0",
"%#	c #D5D7D0",
"&#	c #D4D6D0",
"*#	c #C3C5C0",
"=#	c #CFD1CA",
"-#	c #D3D5CE",
";#	c #D4D7CF",
">#	c #D3D5D0",
",#	c #D4D6CF",
"'#	c #D1D3CD",
")#	c #CCCEC7",
"!#	c #D3D5CF",
"~#	c #D2D5CE",
"{#	c #D4D5CF",
"]#	c #CBCDC7",
"^#	c #D3D6CE",
"/#	c #C4C6C0",
"(#	c #B6B8B2",
"_#	c #C5C7C0",
":#	c #D2D4CE",
"<#	c #C1C3BE",
"[#	c #D1D3CE",
"}#	c #D2D4CD",
"|#	c #D2D4CC",
"1#	c #D1D4CC",
"2#	c #D0D3CC",
"3#	c #D0D2CC",
"4#	c #D0D2CB",
"5#	c #C2C4BD",
"6#	c #B4B6AF",
"7#	c #B4B6B0",
"8#	c #C3C5BF",
"9#	c #D0D2CD",
"0#	c #D1D3CC",
"a#	c #C9CCC6",
"b#	c #D0D3CB",
"c#	c #CFD3CB",
"d#	c #CFD2CB",
"e#	c #CFD1CB",
"f#	c #C1C3BD",
"g#	c #B3B5AF",
"h#	c #B3B6AF",
"                                                                ",
"    . . . . . . . . . . . . . . . . . . . . . . . . . . . .     ",
"  . . + @ @ @ @ @ @ @ @ @ @ @ @ @ @ @ @ @ @ @ @ @ @ @ @ + . .   ",
"  . + # # # # # # # # # # # # # # # # # # # # # # # # # # + .   ",
"  . @ # # # # # $ # # # # # # # # # % & * = - ; > - , ' # @ .   ",
"  . @ # # # # ) ! # # # # # # # # ~ { ] ^ / ( _ : < [ } | + .   ",
"  . @ # # # ) 1 2 # # # # # # # # 3 4 5 6 7 [ 8 9 0 a b c d e   ",
"  . @ # # ) f g h i j # # # # # # # k l m n o p q r s t u v w   ",
"  . @ # # # x y z A B C $ # # # # # | D E F G H I J K L L M N   ",
"  . O # # # P Q R S T U V W | c X Y Z u `  ...L +.+.@.#.+.$.%.  ",
"  &.*.# # =.-.;.>.) $ ,.'.).!.~...{.L L ].^.+.+.+./.(._.:.$.%.  ",
"  <.[.}.c | | |.1.2.}.3.4.5.3.].+.+.+.+.+.+.+.+.6.7.8.+.+.$.%.  ",
"  N 9.H H Y 0.a.b.c.H ~.d.e.f.g.+.+.+.+.+.+.+.+.h.i.j.+.+.$.%.  ",
"  %.k.^.l.m.n.o.p...].l.+.q.r.s.+.+.+.+.+.+.+.t.u.v.+.+.+.$.%.  ",
"  %.$.+.+.+.w.x.y.].+.+.+.+.z.A.:.+.+.+.+.+.+.B.C.+.+.+.+.$.%.  ",
"  %.$.+.+.D.E.F.G.{.+.+.+.+.L H.I.+.+.+.+.+.J.K.L.+.+.+.+.$.%.  ",
"  %.k.+.M.N.O.P.Q.R.S.D.S.T.U.V.W.X.D.R.+.:.Y.Z.+.+.+.+.+.$.%.  ",
"  `. +X..+++@+d.#+X.$+%+&+*+=+-+;+S.&+>+,+'+)+!++.+.+.+.+.$.%.  ",
"  ~+{+]+,+^+/+(+_+%+:+:+:+<+<+[+}+|+1+2+&+3+4+1+5+6+R.].:.7+8+  ",
"  9+0+a+b+c+d+e+#+a+f+e+g+h+i+i+j+k+l+g+m+n+o+i+p+q+q+q+r+s+t+  ",
"  u+v+p+q+p+w+q+x+p+y+N.z+N.N.N.A+B+C+q+D+E+F+G+H+I+I+I+H+J+K+  ",
"  L+M+H+N+O+P+Q+R+q+9.S+9.T+9.9.U+V+W+X+Y+Z+`+ @ @.@.@.@ @+@@@  ",
"  #@$@ @%@&@%@*@=@-@M ;@;@;@;@>@,@'@)@!@~@,@{@,@]@]@^@/@(@_@:@  ",
"  <@[@%@ @}@|@1@2@z+3@4@I+5@I+G+6@I+H+7@5@8@9@-@-@0@a@b@c@d@e@  ",
"  f@g@+@h@#@i@j@k@l@m@n@o@i@p@q@r@s@t@u@v@w@x@y@z@A@B@C@D@E@F@  ",
"  G@H@I@J@K@L@M@h@N@O@P@Q@R@R@S@v@T@U@V@W@X@Y@Z@V@`@ #y..#+#@#  ",
"  @###$#%#%#&#U@*#I@g@=#-#;#&#&#`@>#,#,#+@'#)#!#~#{#]#]#^#/#(#  ",
"  (#_#-#-#:#:#&#<#-#:#:#~#:#[#:#:#}#}#|#1#1#2#2#3#3#3#3#4#5#6#  ",
"  7#8#'#3#3#9#0#a#b#4#c#d#d#e#e#e#e#e#e#e#e#e#e#e#e#e#e#e#f#g#  ",
"  h#g#f#f#f#f#f#f#f#f#f#f#f#f#f#f#f#f#f#f#f#f#f#f#f#f#f#f#g#g#  ",
"    g#g#g#g#g#g#g#g#g#g#g#g#g#g#g#g#g#g#g#g#g#g#g#g#g#g#g#g#    ",
"                                                                "};
