/* XPM */
static char * icon_datablock_viewer_16_xpm[] = {
"16 16 180 2",
"  	c None",
". 	c #EBEBDE",
"+ 	c #F3F3E6",
"@ 	c #F3F3E7",
"# 	c #F3F3E8",
"$ 	c #F2F3E8",
"% 	c #F1F3E9",
"& 	c #F2F4EA",
"* 	c #F2F3EA",
"= 	c #F3F1EB",
"- 	c #F3F4EA",
"; 	c #E8EBE0",
"> 	c #F3F2E6",
", 	c #FBFBED",
"' 	c #FBFCEF",
") 	c #FBFBEE",
"! 	c #EAEFDF",
"~ 	c #4FB150",
"{ 	c #22D022",
"] 	c #ACDEA4",
"^ 	c #FFFDF4",
"/ 	c #F3ECE6",
"( 	c #FBFEF1",
"_ 	c #F8C6B1",
": 	c #FBFDF0",
"< 	c #EAEFDE",
"[ 	c #58B757",
"} 	c #2EDE2E",
"| 	c #17EA1C",
"1 	c #8DDF84",
"2 	c #F7F4E3",
"3 	c #F3E8E9",
"4 	c #FBF9F1",
"5 	c #F8BFA8",
"6 	c #F9E1D0",
"7 	c #F8CEBA",
"8 	c #FBFFF4",
"9 	c #FBFBEC",
"0 	c #FBFBEA",
"a 	c #EAEED9",
"b 	c #58B756",
"c 	c #2FDD2F",
"d 	c #1CED21",
"e 	c #24E727",
"f 	c #E8EBCC",
"g 	c #F3E5EB",
"h 	c #FBF3F0",
"i 	c #F7B9A3",
"j 	c #F9D3BE",
"k 	c #FBFFEF",
"l 	c #F7C5AB",
"m 	c #F8E9CE",
"n 	c #F8F9DC",
"o 	c #E7ECCD",
"p 	c #57B754",
"q 	c #2DE12D",
"r 	c #46D744",
"s 	c #F3F2D6",
"t 	c #F0F0D3",
"u 	c #F1DAE8",
"v 	c #F9E7E3",
"w 	c #F49677",
"x 	c #F9F7DC",
"y 	c #F9F9DE",
"z 	c #F8FBE0",
"A 	c #F7DBBD",
"B 	c #F6CFB0",
"C 	c #F1F9DD",
"D 	c #A8D49A",
"E 	c #93D888",
"F 	c #F8F6DE",
"G 	c #F7F8DD",
"H 	c #F0F0D7",
"I 	c #F0D8EA",
"J 	c #F8E1E2",
"K 	c #F6CFB1",
"L 	c #F8F8DA",
"M 	c #F9F8DC",
"N 	c #F1F8DE",
"O 	c #E7F8DF",
"P 	c #E4F4DC",
"Q 	c #E4C5AA",
"R 	c #E2E3CB",
"S 	c #E1FAE5",
"T 	c #E2F8E4",
"U 	c #DBF0DD",
"V 	c #F0D8EE",
"W 	c #F7DFEB",
"X 	c #F5C8AD",
"Y 	c #F7F8D9",
"Z 	c #F2F7DC",
"` 	c #DEF7DD",
" .	c #DDF6E4",
"..	c #DBF6E6",
"+.	c #DCF9EB",
"@.	c #DEE2D2",
"#.	c #E0D3C2",
"$.	c #DCF9F0",
"%.	c #DDF8F0",
"&.	c #D6F0E9",
"*.	c #EBD4EA",
"=.	c #F3DEF5",
"-.	c #F1C0AE",
";.	c #F2F4D4",
">.	c #F1F2D7",
",.	c #E5F2D8",
"'.	c #DFF2D9",
").	c #E1F2D9",
"!.	c #E3F2D8",
"~.	c #E4F1D7",
"{.	c #E5D0B5",
"].	c #D9EDDF",
"^.	c #D2F4EE",
"/.	c #CCEDE6",
"(.	c #E7D0E6",
"_.	c #EEDAF2",
":.	c #EEB5B5",
"<.	c #EDE8CE",
"[.	c #EDEFD0",
"}.	c #EEEED0",
"|.	c #EDEFCF",
"1.	c #EDEECF",
"2.	c #ECECCE",
"3.	c #ECEAD4",
"4.	c #EDB5A3",
"5.	c #D2EBDE",
"6.	c #C1E4DE",
"7.	c #E2CBE2",
"8.	c #E9D6EE",
"9.	c #EAB2BC",
"0.	c #E9D0E0",
"a.	c #E9D2D5",
"b.	c #E9D6CF",
"c.	c #E8D8CC",
"d.	c #E8D8CA",
"e.	c #E8D5CA",
"f.	c #E8D3CA",
"g.	c #E7D2CC",
"h.	c #E8ADA5",
"i.	c #E2DADD",
"j.	c #BCDFDB",
"k.	c #DFB4C1",
"l.	c #E7B0BB",
"m.	c #E7A6AB",
"n.	c #E4CEE4",
"o.	c #E4CEE5",
"p.	c #E4CDE4",
"q.	c #E4CBE0",
"r.	c #E4CAD7",
"s.	c #E3C8CC",
"t.	c #E3CAC6",
"u.	c #E3CEC5",
"v.	c #E4B3A7",
"w.	c #E5ABAD",
"x.	c #BCD0C6",
"y.	c #D9C6DD",
"z.	c #E0CDE6",
"A.	c #E0CCE4",
"B.	c #E0C9E0",
"C.	c #E0CAE0",
"D.	c #DFCAE0",
"E.	c #DFC9E0",
"F.	c #DFC7DB",
"G.	c #DFC5CB",
"H.	c #DFC7C1",
"I.	c #DECCC1",
"J.	c #DECAC1",
"K.	c #DFC7D9",
"L.	c #BAD8CE",
"M.	c #CDB9CE",
"N.	c #D5C0D6",
"O.	c #D4BFD5",
"P.	c #D4C0D5",
"Q.	c #D4BED2",
"R.	c #D4BCC2",
"S.	c #D4BEB8",
"T.	c #D4C4B8",
"U.	c #D4C2B7",
"V.	c #D5BBC9",
"W.	c #B4CDC6",
"                                ",
"  . + @ # $ % % % & * = - % ;   ",
"  > , ' ) ) ) ) ) ! ~ { ] ^ @   ",
"  / ( _ : ) ) ) ) < [ } | 1 2   ",
"  3 4 5 6 7 8 9 0 a b c d e f   ",
"  g h i j k l m n o p q r s t   ",
"  u v w x y z A B C D E F G H   ",
"  I J K L M N O P Q R S T T U   ",
"  V W X Y Z `  ...+.@.#.$.%.&.  ",
"  *.=.-.;.>.,.'.).!.~.{.].^./.  ",
"  (._.:.<.[.[.}.|.1.2.3.4.5.6.  ",
"  7.8.9.0.a.b.c.d.e.f.g.h.i.j.  ",
"  k.l.m.n.o.p.q.r.s.t.u.v.w.x.  ",
"  y.z.A.B.C.D.E.F.G.H.I.J.K.L.  ",
"  M.N.O.O.O.P.O.Q.R.S.T.U.V.W.  ",
"                                "};
