/* XPM */
static char * icon_gde_16_xpm[] = {
"16 16 139 2",
"  	c None",
". 	c #E6E6E3",
"+ 	c #EFEFEC",
"@ 	c #F0F0EC",
"# 	c #F2F2EC",
"$ 	c #F1F1EC",
"% 	c #F6F6F3",
"& 	c #F3F2F0",
"* 	c #FAFAF3",
"= 	c #A6A6F7",
"- 	c #C5C5F6",
"; 	c #8989F8",
"> 	c #A8A8F7",
", 	c #CCCCF5",
"' 	c #F7F7F4",
") 	c #DEE0DB",
"! 	c #D3DDD4",
"~ 	c #FAFAF4",
"{ 	c #FDFDF3",
"] 	c #9090F8",
"^ 	c #6F6FFA",
"/ 	c #7878F8",
"( 	c #8383F7",
"_ 	c #BABAF2",
": 	c #ECECE7",
"< 	c #F4F4F0",
"[ 	c #B8B9CE",
"} 	c #A7A6CD",
"| 	c #E0E0D9",
"1 	c #F7F7F3",
"2 	c #F5F5F1",
"3 	c #F9F9EF",
"4 	c #F8F8EE",
"5 	c #F9F9EA",
"6 	c #F2F2E7",
"7 	c #EAEAE8",
"8 	c #E7E7E0",
"9 	c #EDEDEA",
"0 	c #F3F3F0",
"a 	c #CFCECC",
"b 	c #FFFFF6",
"c 	c #A8A8D4",
"d 	c #F7F7EF",
"e 	c #EEEEE7",
"f 	c #EDEDE6",
"g 	c #DADAE7",
"h 	c #C0BFD9",
"i 	c #E7E7DF",
"j 	c #E8E8E1",
"k 	c #EEEEE8",
"l 	c #D7D7D2",
"m 	c #CECDC8",
"n 	c #EFEFE9",
"o 	c #E6E7EB",
"p 	c #ADADBB",
"q 	c #9B99B7",
"r 	c #F2F2EA",
"s 	c #E6E6DF",
"t 	c #EEEDE7",
"u 	c #C9C8C3",
"v 	c #EEEEE6",
"w 	c #B4B4D7",
"x 	c #F3F3E8",
"y 	c #B8B7C1",
"z 	c #E8E8E3",
"A 	c #E4E5DE",
"B 	c #E9EAE3",
"C 	c #E5E5DE",
"D 	c #CCCBC6",
"E 	c #EBEBE4",
"F 	c #DBDCDA",
"G 	c #C6C6CD",
"H 	c #EAEAE3",
"I 	c #B6B5D9",
"J 	c #EFEFE7",
"K 	c #E0E0DA",
"L 	c #D1D1CB",
"M 	c #C3C3BE",
"N 	c #E6E7E0",
"O 	c #E6E6E0",
"P 	c #E9E9E0",
"Q 	c #B1B1CD",
"R 	c #E7E8E0",
"S 	c #B3B3C1",
"T 	c #D9DAD7",
"U 	c #E1E2DB",
"V 	c #DBDCD5",
"W 	c #E0E1DA",
"X 	c #CBCBC6",
"Y 	c #C0C1BC",
"Z 	c #E1E2DC",
"` 	c #C2C2C3",
" .	c #A3A4C5",
"..	c #E3E4DB",
"+.	c #D9DAD3",
"@.	c #D7D8D1",
"#.	c #D8DAD3",
"$.	c #BCC0B7",
"%.	c #DADDD5",
"&.	c #DFE1DA",
"*.	c #E0E2D9",
"=.	c #ABACD0",
"-.	c #D1D2D8",
";.	c #DEE0D9",
">.	c #D8DCD3",
",.	c #D5D5D0",
"'.	c #CFD1CA",
").	c #CFD0CA",
"!.	c #BEC1BA",
"~.	c #ACB2A8",
"{.	c #929E8E",
"].	c #B5B6B1",
"^.	c #BABBB6",
"/.	c #AFB0AB",
"(.	c #BDBFB9",
"_.	c #A6A7A2",
":.	c #AFB0AA",
"<.	c #BBBCB7",
"[.	c #8F9B8B",
"}.	c #CACAC5",
"|.	c #CED0CA",
"1.	c #D4D6D0",
"2.	c #D5D7D0",
"3.	c #CCCEC8",
"4.	c #D1D4CD",
"5.	c #D3D6CF",
"6.	c #D3D5CF",
"7.	c #D2D4CD",
"8.	c #D3D5CE",
"9.	c #D1D3CD",
"0.	c #D2D4CE",
"a.	c #D0D2CC",
"b.	c #CBCDC7",
"c.	c #C2C4BE",
"d.	c #C9CBC5",
"e.	c #CACCC5",
"f.	c #C7CAC4",
"g.	c #C8CBC4",
"h.	c #C8CAC4",
"                                ",
"  . + + + + + + + @ @ # @ $ .   ",
"  + % % & % % % * = - ; > , +   ",
"  + ' ) ! ~ % % { ] ^ / ( _ :   ",
"  + ' < [ } | 1 2 3 4 5 6 7 8   ",
"  9 0 9 a b c d e e f f g h i   ",
"  j k l m n o p f f f k q r s   ",
"  s t s u f v w x f f y z f s   ",
"  A B C D E E F G H x I J f s   ",
"  K C L M N O P Q R S T N j U   ",
"  V W X Y Z U U Q `  ...W W +.  ",
"  @.W #.$.%.&.&.*.=.-.;.;.>.,.  ",
"  '.).!.~.{.].^./.(._.:.<.[.}.  ",
"  |.1.2.3.4.5.6.7.8.4.9.0.a.b.  ",
"  c.d.e.f.d.d.d.d.g.g.g.h.h.c.  ",
"                                "};
