/* XPM */
static char * icon_datablock_viewer_32_xpm[] = {
"32 32 624 2",
"  	c None",
". 	c #D9D9CD",
"+ 	c #D9D9CE",
"@ 	c #D9D9CF",
"# 	c #D6D9D0",
"$ 	c #D4D9D0",
"% 	c #D2D9CF",
"& 	c #D1D9CF",
"* 	c #D0D9D0",
"= 	c #D0D9CF",
"- 	c #D9D7CD",
"; 	c #DADACE",
"> 	c #EAEADD",
", 	c #EAEADE",
"' 	c #EAEADF",
") 	c #E9EADF",
"! 	c #E8EAE0",
"~ 	c #E7EAE0",
"{ 	c #E6EAE0",
"] 	c #E5EADF",
"^ 	c #E4EAE0",
"/ 	c #E4EADF",
"( 	c #E5EAE0",
"_ 	c #D5DAD0",
": 	c #D9D4CD",
"< 	c #FBFBED",
"[ 	c #FBFBEE",
"} 	c #FBFBEF",
"| 	c #FBFBF0",
"1 	c #FCFCF1",
"2 	c #EBF1E1",
"3 	c #FDFDF1",
"4 	c #F0F3E6",
"5 	c #F7F8EC",
"6 	c #EAEAE0",
"7 	c #D9D9D0",
"8 	c #D9D1CD",
"9 	c #EAE9DD",
"0 	c #CCDFC4",
"a 	c #27B129",
"b 	c #81B280",
"c 	c #2CC72C",
"d 	c #2FBD2F",
"e 	c #C7DEBE",
"f 	c #FEFDF2",
"g 	c #D9CFCE",
"h 	c #EAE6DD",
"i 	c #FBF9EA",
"j 	c #CDDFC5",
"k 	c #30C130",
"l 	c #85B384",
"m 	c #34DA32",
"n 	c #2BE22C",
"o 	c #28D029",
"p 	c #B3D6AA",
"q 	c #FFFDF2",
"r 	c #D9CFD1",
"s 	c #EAE2DD",
"t 	c #FBF9ED",
"u 	c #F7C2AB",
"v 	c #F9DECC",
"w 	c #CDDFC4",
"x 	c #30C030",
"y 	c #85B383",
"z 	c #35D933",
"A 	c #2CE12D",
"B 	c #21EA24",
"C 	c #1DDF21",
"D 	c #9BCF90",
"E 	c #FFFEF0",
"F 	c #FAFAEA",
"G 	c #EAEADB",
"H 	c #D9D9CC",
"I 	c #D9CFD3",
"J 	c #EAE0DE",
"K 	c #FBF4ED",
"L 	c #F8C4AD",
"M 	c #F9D2BE",
"N 	c #31C031",
"O 	c #85B382",
"P 	c #36D934",
"Q 	c #2DE02D",
"R 	c #22E825",
"S 	c #17F01D",
"T 	c #12EE19",
"U 	c #81CC75",
"V 	c #FFFCE7",
"W 	c #E8E8D4",
"X 	c #D8D8C5",
"Y 	c #D9CFD6",
"Z 	c #EADFE1",
"` 	c #FBF1ED",
" .	c #FBF6ED",
"..	c #F8C3AD",
"+.	c #F8CBB6",
"@.	c #FBFFF1",
"#.	c #FBFFF3",
"$.	c #FBFCEE",
"%.	c #FBFBEC",
"&.	c #FBFBEB",
"*.	c #CDDFC2",
"=.	c #32C031",
"-.	c #85B380",
";.	c #36D834",
">.	c #2EE02E",
",.	c #23E826",
"'.	c #0CF715",
").	c #0FEF17",
"!.	c #B9DCA4",
"~.	c #E8E8CD",
"{.	c #D6D6C0",
"].	c #D9D0D8",
"^.	c #EADFE4",
"/.	c #FBEFEF",
"(.	c #FBF2ED",
"_.	c #F8C1AC",
":.	c #F7C5AF",
"<.	c #FBF8E9",
"[.	c #F48F71",
"}.	c #F6A78D",
"|.	c #F6A58A",
"1.	c #FBFFF6",
"2.	c #FAFAE9",
"3.	c #FBFBE7",
"4.	c #FAFAE5",
"5.	c #F9F9E4",
"6.	c #CCDEBC",
"7.	c #84B27E",
"8.	c #2CE02D",
"9.	c #16F01C",
"0.	c #16E71C",
"a.	c #9BD188",
"b.	c #FEFADE",
"c.	c #E7E7CA",
"d.	c #D6D6BC",
"e.	c #D9CED8",
"f.	c #EADEE5",
"g.	c #FBEEF0",
"h.	c #FBEFEC",
"i.	c #F8C0AD",
"j.	c #F7BBA3",
"k.	c #F5A68B",
"l.	c #FCFFF5",
"m.	c #F59374",
"n.	c #F9E0CB",
"o.	c #FAFBE7",
"p.	c #F9F9E1",
"q.	c #F8F8DE",
"r.	c #F8F8DD",
"s.	c #F8F8DC",
"t.	c #CBDDB6",
"u.	c #31C131",
"v.	c #84B27C",
"w.	c #20EA24",
"x.	c #22D726",
"y.	c #B3D69E",
"z.	c #FDFADD",
"A.	c #F8F8D9",
"B.	c #D7CAD7",
"C.	c #E9D9E4",
"D.	c #FBEAEE",
"E.	c #FAEBE9",
"F.	c #FBF0EA",
"G.	c #F7BDAB",
"H.	c #F7BBA2",
"I.	c #F5A487",
"J.	c #FBFCEB",
"K.	c #FAFFED",
"L.	c #F6B99B",
"M.	c #F5A886",
"N.	c #F8FFE4",
"O.	c #F8F8DA",
"P.	c #30C131",
"Q.	c #2AE42C",
"R.	c #2FC831",
"S.	c #C9DEB2",
"T.	c #FBF9DD",
"U.	c #F8F8DB",
"V.	c #E7E7CC",
"W.	c #D6D6BD",
"X.	c #D7C5D6",
"Y.	c #E8D4E4",
"Z.	c #F9E4EB",
"`.	c #FAE4E3",
" +	c #FAEAE2",
".+	c #F6BBA5",
"++	c #F37F5C",
"@+	c #F7D5BA",
"#+	c #FAFAE2",
"$+	c #FAFAE1",
"%+	c #F9F9E0",
"&+	c #F7EDD0",
"*+	c #F38D68",
"=+	c #F8F0D2",
"-+	c #CEDFB9",
";+	c #27AA2B",
">+	c #88B77F",
",+	c #2EBE30",
"'+	c #38B739",
")+	c #D9E6C1",
"!+	c #F9F9DD",
"~+	c #E7E7CD",
"{+	c #D6D6BE",
"]+	c #D6C2D5",
"^+	c #E7D1E4",
"/+	c #F8DFEA",
"(+	c #F8DEE0",
"_+	c #F8E3DB",
":+	c #F5B49B",
"<+	c #F39673",
"[+	c #F8FFE2",
"}+	c #F9FFE6",
"|+	c #F3A381",
"1+	c #F6C1A2",
"2+	c #F7FDE4",
"3+	c #F9FAE0",
"4+	c #F7F8E0",
"5+	c #FCFBE3",
"6+	c #FAF9E2",
"7+	c #FBFBE3",
"8+	c #F6F8DF",
"9+	c #E5E7D0",
"0+	c #D5D6C1",
"a+	c #E7D1E5",
"b+	c #F8DDEB",
"c+	c #F8DDE2",
"d+	c #F8E1D9",
"e+	c #F5AE93",
"f+	c #F8F4D4",
"g+	c #F9F9DC",
"h+	c #F6F9DE",
"i+	c #F0F8DF",
"j+	c #ECF8DF",
"k+	c #E9FAE1",
"l+	c #E7D5B8",
"m+	c #E99370",
"n+	c #E5F2D8",
"o+	c #E4F9E0",
"p+	c #E4F8DE",
"q+	c #E4F8DF",
"r+	c #E4F8E0",
"s+	c #D5E7D1",
"t+	c #C6D6C2",
"u+	c #E7D1E6",
"v+	c #F8DDEE",
"w+	c #F8DDE5",
"x+	c #F8DFDA",
"y+	c #F5AD93",
"z+	c #F8F3D3",
"A+	c #EFF8DE",
"B+	c #E7F8DF",
"C+	c #E1F8DF",
"D+	c #E0F8E1",
"E+	c #E0F9E3",
"F+	c #E0F8E4",
"G+	c #E0FFEE",
"H+	c #E4AA8F",
"I+	c #E59F82",
"J+	c #DFFAE9",
"K+	c #E0F8E8",
"L+	c #DFF8E7",
"M+	c #D0E7D8",
"N+	c #C2D6C9",
"O+	c #F8DFF3",
"P+	c #F7DCEA",
"Q+	c #F8DCDE",
"R+	c #F4A992",
"S+	c #F7F3D3",
"T+	c #F0F8DE",
"U+	c #E4F8DC",
"V+	c #DEF8DF",
"W+	c #DFF6E3",
"X+	c #DDF6E5",
"Y+	c #DCF6E6",
"Z+	c #DBF6E7",
"`+	c #DDF7E8",
" @	c #DFF8EA",
".@	c #DFFDF0",
"+@	c #E49B80",
"@@	c #E1D0BE",
"#@	c #DDF8ED",
"$@	c #DDF8EE",
"%@	c #CEE7DE",
"&@	c #BFD6CE",
"*@	c #D6C1D5",
"=@	c #E6CFE4",
"-@	c #F5DEF4",
";@	c #F6DCF0",
">@	c #F6DAE6",
",@	c #F3A290",
"'@	c #F5F0D2",
")@	c #F6F6D7",
"!@	c #F6F6D8",
"~@	c #F5F5DB",
"{@	c #EAF6DB",
"]@	c #DFF6D9",
"^@	c #DDF4DF",
"/@	c #DDF5E2",
"(@	c #DBF4E4",
"_@	c #DAF4E4",
":@	c #DAF5E5",
"<@	c #DAF4E6",
"[@	c #DAF5E7",
"}@	c #DBF9EE",
"|@	c #E2B099",
"1@	c #DEDED1",
"2@	c #DBF8F0",
"3@	c #DBF8F1",
"4@	c #DCF8F1",
"5@	c #CDE7E1",
"6@	c #BED6D0",
"7@	c #D2BED1",
"8@	c #E3CDE2",
"9@	c #F4DBF3",
"0@	c #F3DCF2",
"a@	c #F4DAED",
"b@	c #F19F92",
"c@	c #F3EDD1",
"d@	c #F2F4D4",
"e@	c #F2F4D6",
"f@	c #F3F4D8",
"g@	c #EDF3D9",
"h@	c #E2F2D8",
"i@	c #DBF3D9",
"j@	c #D9F2DB",
"k@	c #DAF2DC",
"l@	c #D9F2DC",
"m@	c #DAF3DC",
"n@	c #D6F8E5",
"o@	c #E29577",
"p@	c #D6FBF2",
"q@	c #D8F6EF",
"r@	c #D7F8F1",
"s@	c #D8F9F2",
"t@	c #D8F8F1",
"u@	c #CAE7E1",
"v@	c #BBD6D0",
"w@	c #D0BDD0",
"x@	c #E1CBE0",
"y@	c #F2DAF0",
"z@	c #F1DAEF",
"A@	c #F0D9EF",
"B@	c #F09D96",
"C@	c #F0E6D3",
"D@	c #F1F2D2",
"E@	c #F0F2D3",
"F@	c #F0F1D4",
"G@	c #F1F0D5",
"H@	c #EDF0D6",
"I@	c #E9F0D7",
"J@	c #E7F0D7",
"K@	c #E6F0D6",
"L@	c #E8F0D6",
"M@	c #E9F0D6",
"N@	c #EBF0D6",
"O@	c #EDF0D5",
"P@	c #EEF0D5",
"Q@	c #EFF0D4",
"R@	c #EEEFD3",
"S@	c #EDCBAC",
"T@	c #E3CAAD",
"U@	c #D4EFE2",
"V@	c #CEEFE8",
"W@	c #CDEFE9",
"X@	c #CCF0E9",
"Y@	c #BEE0DA",
"Z@	c #B1CFCA",
"`@	c #CFBBCE",
" #	c #DFC9DE",
".#	c #EED7EE",
"+#	c #EED8EE",
"@#	c #EED6EE",
"##	c #EF9B99",
"$#	c #EFDBD5",
"%#	c #EEECD0",
"&#	c #EFEFCF",
"*#	c #EFEED1",
"=#	c #EEEED2",
"-#	c #EDEED2",
";#	c #EEEED1",
">#	c #EDEFD0",
",#	c #EDEDCF",
"'#	c #EDEECF",
")#	c #ECEECE",
"!#	c #ECF4D7",
"~#	c #ED9878",
"{#	c #ECEACF",
"]#	c #D3EEDE",
"^#	c #CAEDE7",
"/#	c #C8EEE6",
"(#	c #BBDDD6",
"_#	c #ADCDC7",
":#	c #CCB9CD",
"<#	c #DCC8DC",
"[#	c #ECD6EB",
"}#	c #ECD6EC",
"|#	c #ECD5EB",
"1#	c #ED9897",
"2#	c #ECD6E1",
"3#	c #ECD8CE",
"4#	c #EBE7CD",
"5#	c #EBECCD",
"6#	c #ECEDCD",
"7#	c #ECEDCE",
"8#	c #EBEDCE",
"9#	c #EBEDCD",
"0#	c #EBEBCC",
"a#	c #EAEACD",
"b#	c #EAE6CC",
"c#	c #EADFCC",
"d#	c #EBDACE",
"e#	c #EB8F79",
"f#	c #EAD5DC",
"g#	c #E8E1CF",
"h#	c #C8EBE4",
"i#	c #C6E9E4",
"j#	c #B8D9D5",
"k#	c #ABC9C5",
"l#	c #CAB6CA",
"m#	c #DAC4D9",
"n#	c #EBD3EA",
"o#	c #EBD4EA",
"p#	c #EB9593",
"q#	c #E9D7EF",
"r#	c #E9D0DE",
"s#	c #EAD0D2",
"t#	c #EAD5CD",
"u#	c #EADBCB",
"v#	c #EAE0CB",
"w#	c #EAE3CB",
"x#	c #E9E4CA",
"y#	c #E8E3CA",
"z#	c #E8E2CA",
"A#	c #E8DFCA",
"B#	c #E8DCCA",
"C#	c #E8D9CA",
"D#	c #E9D7CA",
"E#	c #E9D4CA",
"F#	c #E8D1CA",
"G#	c #E99C8E",
"H#	c #E8C5C9",
"I#	c #E8CEE1",
"J#	c #D5E8D5",
"K#	c #C4E7E2",
"L#	c #B6D7D3",
"M#	c #A9C8C4",
"N#	c #C9B5C9",
"O#	c #D9C2D8",
"P#	c #E8D0E8",
"Q#	c #E7D1E8",
"R#	c #EA9490",
"S#	c #E7D6EF",
"T#	c #E8D1E8",
"U#	c #E8D0E6",
"V#	c #E8CFE1",
"W#	c #E7CEDB",
"X#	c #E7CDD5",
"Y#	c #E7CCD1",
"Z#	c #E7CDCF",
"`#	c #E6CDCC",
" $	c #E6CECB",
".$	c #E6CDCA",
"+$	c #E7CDC9",
"@$	c #E7CFC8",
"#$	c #E7CFC9",
"$$	c #E6CFC8",
"%$	c #E5CFC9",
"&$	c #E5C9C5",
"*$	c #E8958A",
"=$	c #E5CCDF",
"-$	c #DEDDD5",
";$	c #C2E5E1",
">$	c #B4D5D1",
",$	c #A8C5C2",
"'$	c #C6B2C6",
")$	c #D6C1D6",
"!$	c #E6CFE6",
"~$	c #E9928E",
"{$	c #E5D4ED",
"]$	c #E5CFE6",
"^$	c #E5CFE5",
"/$	c #E5CDE5",
"($	c #E4CEE4",
"_$	c #E4CDE3",
":$	c #E4CCE0",
"<$	c #E5CBDB",
"[$	c #E5CAD6",
"}$	c #E5CBD2",
"|$	c #E4CACE",
"1$	c #E3C8CA",
"2$	c #E3CAC6",
"3$	c #E4CDC6",
"4$	c #E4CEC6",
"5$	c #E4CEC5",
"6$	c #E3D2CC",
"7$	c #E78673",
"8$	c #E3D1E0",
"9$	c #E3D5DE",
"0$	c #C1E7E0",
"a$	c #B3D3CE",
"b$	c #A5C3C0",
"c$	c #C4B1C4",
"d$	c #D5B2C3",
"e$	c #E88A85",
"f$	c #E78C88",
"g$	c #E88C88",
"h$	c #EA6D5B",
"i$	c #E2D2EC",
"j$	c #E3CDE3",
"k$	c #E2CCE2",
"l$	c #E2CDE2",
"m$	c #E2CBE3",
"n$	c #E3CCE2",
"o$	c #E2CBE1",
"p$	c #E2C9DC",
"q$	c #E1C9D5",
"r$	c #E2C9D1",
"s$	c #E2C7C9",
"t$	c #E2C7C5",
"u$	c #E2CBC5",
"v$	c #E2CDC3",
"w$	c #E2CFC4",
"x$	c #E2CCC3",
"y$	c #E3ADA2",
"z$	c #E58578",
"A$	c #E68C85",
"B$	c #D0AC94",
"C$	c #AFD3CF",
"D$	c #A2C2BE",
"E$	c #C3B0C3",
"F$	c #D2BED4",
"G$	c #E1D2EC",
"H$	c #E1D1EB",
"I$	c #E0D1EB",
"J$	c #E0D2EC",
"K$	c #E1CAE0",
"L$	c #E0CAE0",
"M$	c #E0CBE0",
"N$	c #E0C9E0",
"O$	c #DFC9E0",
"P$	c #E0C9DE",
"Q$	c #E0C6D7",
"R$	c #E0C7CF",
"S$	c #DFC5C8",
"T$	c #E0C5C3",
"U$	c #E0C9C1",
"V$	c #DFCCC2",
"W$	c #DECCC2",
"X$	c #DECDC2",
"Y$	c #DFC7C1",
"Z$	c #DEC8CF",
"`$	c #DFCAE5",
" %	c #C6E4D1",
".%	c #AECECB",
"+%	c #A2C0BC",
"@%	c #C1ADC2",
"#%	c #CFBCD0",
"$%	c #DEC9E0",
"%%	c #DEC8E0",
"&%	c #DEC8DF",
"*%	c #DEC8DE",
"=%	c #DEC9DE",
"-%	c #DDC8DE",
";%	c #DDC7DD",
">%	c #DEC4D6",
",%	c #DEC5CF",
"'%	c #DDC3C5",
")%	c #DCC4C0",
"!%	c #DCC7C0",
"~%	c #DDCBC0",
"{%	c #DCCBC0",
"]%	c #DCC7BF",
"^%	c #DCC2C6",
"/%	c #DDC4DB",
"(%	c #CADAD0",
"_%	c #ABCDC9",
":%	c #A0BDBA",
"<%	c #BEACBF",
"[%	c #CEB9CF",
"}%	c #DDC7DE",
"|%	c #DCC7DE",
"1%	c #DCC6DE",
"2%	c #DCC5DD",
"3%	c #DCC5DC",
"4%	c #DBC5DC",
"5%	c #DBC6DC",
"6%	c #DBC3D5",
"7%	c #DBC3CD",
"8%	c #DBC2C5",
"9%	c #DBC2BF",
"0%	c #DBC7BE",
"a%	c #DBC9BE",
"b%	c #DBCBBE",
"c%	c #DBCABE",
"d%	c #DBC1C4",
"e%	c #DBC2D9",
"f%	c #CDDAD1",
"g%	c #9EBDBA",
"h%	c #BDAABE",
"i%	c #BEAABF",
"j%	c #CCB8CD",
"k%	c #CCB7CD",
"l%	c #CCB6C6",
"m%	c #CCB5BF",
"n%	c #CCB5B7",
"o%	c #CCB5B2",
"p%	c #CCBAB1",
"q%	c #CCBCB1",
"r%	c #CCBDB1",
"s%	c #CCB5B6",
"t%	c #CCB5CA",
"u%	c #BFCBC1",
"v%	c #9FBEBB",
"w%	c #BDABBE",
"x%	c #BDA8B9",
"y%	c #BDA8B1",
"z%	c #BDA8AB",
"A%	c #BDA7A4",
"B%	c #BDACA4",
"C%	c #BDAFA4",
"D%	c #BDADA4",
"E%	c #BDA7A8",
"F%	c #BDA8BC",
"G%	c #B1BBAC",
"                                                                ",
"    . + + @ @ # $ % % & & * * * * = = = = = = = = = = = = =     ",
"  - ; > , , ' ' ) ! ~ { ] { ^ ^ ^ / ( ( ( ( ( ( ( ( ( ( ( _ $   ",
"  : > < < [ [ } } } } } | } | | | | | 1 2 3 4 5 1 | | | | 6 7   ",
"  8 9 < < < [ [ [ [ } } } } } } } } } 0 a b c d e f } } } ' @   ",
"  g h < < < i < [ [ [ [ [ [ [ [ [ [ [ j k l m n o p q < < , @   ",
"  r s t < < u v < < [ < [ [ [ [ [ [ [ w x y z A B C D E F G H   ",
"  I J K t < L M < < < < < < < < < < < w N O P Q R S T U V W X   ",
"  Y Z `  .t ..+.< @.#.$.< < < < < %.&.*.=.-.;.>.,.S '.).!.~.{.  ",
"  ].^./.(. ._.:.<.[.}.|.1.%.&.2.3.4.5.6.N 7.P 8.R 9.0.a.b.c.d.  ",
"  e.f.g.h.K i.j.k.l.< <.m.n.o.p.q.r.s.t.u.v.z A w.x.y.z.A.c.d.  ",
"  B.C.D.E.F.G.H.I.J.2.3.K.L.M.N.O.O.O.t.P.v.m Q.R.S.T.U.U.V.W.  ",
"  X.Y.Z.`. +.+++@+#+$+%+q.q.&+*+=+U.U.-+;+>+,+'+)+!+s.s.s.~+{+  ",
"  ]+^+/+(+_+:+<+[+s.U.s.r.s.r.}+|+1+2+3+4+5+6+7+8+8+8+8+8+9+0+  ",
"  ]+a+b+c+d+e+f+A.A.U.g+r.h+i+j+k+l+m+n+o+p+q+r+r+r+r+r+r+s+t+  ",
"  ]+u+v+w+x+y+z+A.U.s.r.A+B+C+D+E+F+G+H+I+J+K+L+K+K+K+K+K+M+N+  ",
"  ]+u+O+P+Q+R+S+A.O.s.T+U+V+W+X+Y+Z+`+ @.@+@@@#@#@#@$@$@$@%@&@  ",
"  *@=@-@;@>@,@'@)@!@~@{@]@^@/@(@_@_@:@<@[@}@|@1@2@3@4@4@4@5@6@  ",
"  7@8@9@0@a@b@c@d@e@f@g@h@i@j@k@k@l@j@k@m@l@n@o@p@q@r@s@t@u@v@  ",
"  w@x@y@z@A@B@C@D@E@F@G@H@I@J@K@L@M@N@O@P@Q@R@S@T@U@V@W@X@Y@Z@  ",
"  `@ #.#+#@###$#%#&#*#=#-#=#=#=#=#;#;#>#,#'#)#!#~#{#]#^#/#(#_#  ",
"  :#<#[#}#|#1#2#3#4#5#6#7#7#7#8#9#9#9#0#a#b#c#d#e#f#g#h#i#j#k#  ",
"  l#m#n#n#o#p#q#r#s#t#u#v#w#x#x#y#z#A#B#C#D#E#F#G#H#I#J#K#L#M#  ",
"  N#O#P#Q#Q#R#S#T#U#V#W#X#Y#Z#`# $.$+$@$#$$$%$%$&$*$=$-$;$>$,$  ",
"  '$)$!$!$!$~${$]$^$^$/$($_$:$<$[$}$|$1$2$3$4$5$6$7$8$9$0$a$b$  ",
"  c$d$e$f$g$h$i$j$k$k$l$k$m$n$o$p$q$r$s$t$u$v$w$x$y$z$A$B$C$D$  ",
"  E$F$G$H$I$J$K$L$M$M$K$M$L$N$O$P$Q$R$S$T$U$V$W$X$Y$Z$`$ %.%+%  ",
"  @%#%$%O$%%&%&%*%*%=%*%-%=%*%&%;%>%,%'%)%!%~%{%{%]%^%/%(%_%:%  ",
"  <%[%}%|%1%2%3%3%4%4%5%4%5%5%4%4%6%7%8%9%0%a%b%c%0%d%e%f%_%g%  ",
"  h%i%j%:#k%j%j%j%j%k%j%k%:#:#k%j%l%m%n%o%p%q%r%q%p%s%t%u%v%g%  ",
"    h%w%h%w%h%h%h%h%w%h%h%w%w%h%h%x%y%z%A%B%C%C%C%D%E%F%G%v%    ",
"                                                                "};
