/* XPM */
static char * icon_gde_24_xpm[] = {
"24 24 285 2",
"  	c None",
". 	c #D4D4D1",
"+ 	c #DCDCD9",
"@ 	c #DDDDDA",
"# 	c #F2F2EF",
"$ 	c #F4F4F1",
"% 	c #F7F7F1",
"& 	c #F6F6F1",
"* 	c #F5F5F1",
"= 	c #F8F8F1",
"- 	c #F6F6F3",
"; 	c #F5F5F2",
"> 	c #F0F0F3",
", 	c #BEBEF6",
"' 	c #CFCFF5",
") 	c #C0C0F6",
"! 	c #C2C2F5",
"~ 	c #EAEAF4",
"{ 	c #A2A2F7",
"] 	c #E6E6F4",
"^ 	c #F7F7F4",
"/ 	c #FAFAF7",
"( 	c #EBEAE9",
"_ 	c #F8F8F3",
": 	c #9B9BF7",
"< 	c #A3A3F7",
"[ 	c #6060FB",
"} 	c #9191F9",
"| 	c #6262FA",
"1 	c #A1A1F7",
"2 	c #4B4BFB",
"3 	c #E9E9F3",
"4 	c #F4F4F0",
"5 	c #E6E4E3",
"6 	c #C9D0C6",
"7 	c #A1BAA1",
"8 	c #FAF8FA",
"9 	c #F8F8F4",
"0 	c #F7F7F3",
"a 	c #E0E0F4",
"b 	c #8282F9",
"c 	c #7070FA",
"d 	c #9595F7",
"e 	c #7676F7",
"f 	c #DADAF0",
"g 	c #5454F8",
"h 	c #D6D6EF",
"i 	c #F2F2EB",
"j 	c #DADAD6",
"k 	c #F0F0ED",
"l 	c #F2F2EE",
"m 	c #9EA2B6",
"n 	c #A4A4D7",
"o 	c #C8C7E3",
"p 	c #EFEFEB",
"q 	c #F6F6F2",
"r 	c #FCFCF0",
"s 	c #FBFBF0",
"t 	c #F8F8EE",
"u 	c #F8F8EB",
"v 	c #EFEFE9",
"w 	c #F6F6E6",
"x 	c #EDEDE8",
"y 	c #EDEDE6",
"z 	c #D6D6D1",
"A 	c #DDDDD9",
"B 	c #EAEAE7",
"C 	c #ECECE9",
"D 	c #BBBAB7",
"E 	c #EEEEEC",
"F 	c #C6C5DE",
"G 	c #8382B4",
"H 	c #F1F0EB",
"I 	c #F4F4EF",
"J 	c #F2F2EC",
"K 	c #F1F1EB",
"L 	c #F0F0EA",
"M 	c #EFEFEA",
"N 	c #EEEEE8",
"O 	c #EDEDE7",
"P 	c #EEEEE6",
"Q 	c #D8D8DF",
"R 	c #C6C6E3",
"S 	c #EDEDE4",
"T 	c #D4D4CE",
"U 	c #F3F3F0",
"V 	c #B8B7B5",
"W 	c #F9F9F5",
"X 	c #D3D2E3",
"Y 	c #C8C8DB",
"Z 	c #F0F0E9",
"` 	c #E5E5E6",
" .	c #A7A7DA",
"..	c #E3E3E4",
"+.	c #EBEBE4",
"@.	c #D5D5CF",
"#.	c #D7D7D1",
"$.	c #EFEFE8",
"%.	c #E5E5E0",
"&.	c #E2E1DC",
"*.	c #BAB9B5",
"=.	c #F4F4EE",
"-.	c #EBEBE9",
";.	c #8786B1",
">.	c #D7D7D5",
",.	c #EEEEE7",
"'.	c #B8B7CB",
").	c #AAA9AE",
"!.	c #E0E0D9",
"~.	c #E6E5DF",
"{.	c #B2B1AD",
"].	c #D5D4D9",
"^.	c #C8C8DC",
"/.	c #EFEFE6",
"(.	c #D7D7E3",
"_.	c #A7A7D3",
":.	c #F5F5EA",
"<.	c #E2E1DB",
"[.	c #DCDBD5",
"}.	c #AEADA8",
"|.	c #F1F1EA",
"1.	c #EFEFE7",
"2.	c #9493CE",
"3.	c #F4F3E8",
"4.	c #F6F6EB",
"5.	c #74728C",
"6.	c #EBECE5",
"7.	c #DEDDD7",
"8.	c #DCDCD6",
"9.	c #B8B8B3",
"0.	c #ECECE5",
"a.	c #EEEFE6",
"b.	c #C2C2CE",
"c.	c #D0CFD4",
"d.	c #EDEDE5",
"e.	c #EDEEE6",
"f.	c #C9C9E0",
"g.	c #C6C6DB",
"h.	c #F0F0E7",
"i.	c #D1D2CB",
"j.	c #E7E8E1",
"k.	c #E9E8E2",
"l.	c #DADAD4",
"m.	c #DBDBD4",
"n.	c #ACABA7",
"o.	c #E8E9E2",
"p.	c #E9E9E3",
"q.	c #E5E5DC",
"r.	c #7574AF",
"s.	c #EFF0E4",
"t.	c #E3E4DC",
"u.	c #A7A7B9",
"v.	c #DFDFE0",
"w.	c #ECECE4",
"x.	c #ECEDE6",
"y.	c #CECEC9",
"z.	c #E5E5DE",
"A.	c #E6E6DF",
"B.	c #E0E1DA",
"C.	c #DDDED7",
"D.	c #AEADA9",
"E.	c #E9EAE3",
"F.	c #E5E6DF",
"G.	c #E5E5DF",
"H.	c #E6E7DF",
"I.	c #BEBDCF",
"J.	c #CFCFD6",
"K.	c #D6D7DA",
"L.	c #AAAAC4",
"M.	c #E4E4DD",
"N.	c #E4E5DE",
"O.	c #E3E3DC",
"P.	c #CDCEC7",
"Q.	c #CCCCC7",
"R.	c #E1E2DB",
"S.	c #E3E4DD",
"T.	c #DADBD5",
"U.	c #DADBD4",
"V.	c #AEAFAA",
"W.	c #E6E7E0",
"X.	c #E2E3DD",
"Y.	c #E2E3DC",
"Z.	c #CFD0D9",
"`.	c #A0A0CC",
" +	c #DEDFD6",
".+	c #BBBCCC",
"++	c #BABBD5",
"@+	c #DFE0D9",
"#+	c #C9CAC4",
"$+	c #DEDFD8",
"%+	c #D0D1CB",
"&+	c #D1D2CC",
"*+	c #A5A5A1",
"=+	c #E3E4DE",
"-+	c #E0E0DA",
";+	c #9B9BBF",
">+	c #8A89B2",
",+	c #8C8CC0",
"'+	c #E4E6DA",
")+	c #DBDDD6",
"!+	c #C6C7C2",
"~+	c #C6C7C1",
"{+	c #DCDDD6",
"]+	c #DEE0D8",
"^+	c #D5D6D0",
"/+	c #CFD3CA",
"(+	c #9DAA99",
"_+	c #D5DAD0",
":+	c #DEE0D9",
"<+	c #D9DBD3",
"[+	c #D9DBD8",
"}+	c #CCCED6",
"|+	c #D8D9D7",
"1+	c #DADCD4",
"2+	c #DDDFD8",
"3+	c #DCDED7",
"4+	c #DCDFD7",
"5+	c #CDD5C8",
"6+	c #DADAD5",
"7+	c #C3C4BE",
"8+	c #C4C5BF",
"9+	c #C9CBC6",
"0+	c #B6B7B2",
"a+	c #AFB5AB",
"b+	c #8C9D89",
"c+	c #9DA79A",
"d+	c #8FA28C",
"e+	c #ACACA7",
"f+	c #ADAEA9",
"g+	c #9F9F9B",
"h+	c #B0B1AC",
"i+	c #AAACA7",
"j+	c #A9AAA5",
"k+	c #9FA09B",
"l+	c #AEAFA9",
"m+	c #A9A9A5",
"n+	c #A2A89E",
"o+	c #8CA788",
"p+	c #CFD0CB",
"q+	c #C1C3BD",
"r+	c #C1C2BC",
"s+	c #D6D8D1",
"t+	c #D8DAD3",
"u+	c #D9DAD4",
"v+	c #DADCD6",
"w+	c #CACBC7",
"x+	c #C0C1BB",
"y+	c #BFBFBA",
"z+	c #C7C9C2",
"A+	c #CCCEC8",
"B+	c #BFC1BA",
"C+	c #D9DCD5",
"D+	c #D9DBD4",
"E+	c #C5C7C1",
"F+	c #B3B4AF",
"G+	c #D2D4CE",
"H+	c #D7D9D3",
"I+	c #BEBFBA",
"J+	c #B8B7B3",
"K+	c #C7C9C3",
"L+	c #BEC1BB",
"M+	c #BEC0BA",
"N+	c #D3D5CF",
"O+	c #D4D6CF",
"P+	c #C4C6C1",
"Q+	c #D2D5CE",
"R+	c #D2D4CD",
"S+	c #D1D4CD",
"T+	c #D1D3CD",
"U+	c #D1D3CC",
"V+	c #CFD2CB",
"W+	c #BBBDB7",
"X+	c #BABCB6",
"Y+	c #CDCFC9",
"Z+	c #CFD1CB",
"`+	c #CACDC7",
" @	c #CED1CA",
".@	c #CED0CA",
"+@	c #CED0C9",
"@@	c #CDD0C9",
"#@	c #B9BBB5",
"$@	c #B2B5AE",
"%@	c #B9BBB6",
"&@	c #BABBB6",
"*@	c #B3B5AF",
"                                                ",
"  . + @ @ @ @ @ @ @ @ @ @ @ @ @ @ @ @ @ @ + .   ",
"  + # $ $ $ $ $ $ $ $ $ $ $ % & % & * = * # +   ",
"  @ $ - - - ; - - - - - - > , ' ) ! ~ { ] * @   ",
"  @ $ - ^ / ( ^ - - - - _ : < [ } | 1 2 3 4 @   ",
"  @ $ - 5 6 7 8 9 - - - 0 a b c d e f g h i j   ",
"  @ $ - k l m n o p ; - - q r s t u v w x y z   ",
"  A $ ; B C D E F G H I J K L M N O P Q R S T   ",
"  j # * U q V W % X Y Z y y y y y y `  ...+.@.  ",
"  #.$.K %.&.*.=.L -.;.>.y y y y y ,.'.).,.+.@.  ",
"  @.+.y !.~.{.K O ,.].^./.y y y /.(._.:.y +.@.  ",
"  @.+.y <.[.}.|.y y 1.2.3.y y y 4.5.~.,.y +.@.  ",
"  T +.6.7.8.9.$.0.0.a.b.c.d.+.e.f.g.h.y y +.@.  ",
"  i.j.k.l.m.n.y o.o.p.q.r.s.j.t.u.v.w.x.,.0.@.  ",
"  y.z.A.B.C.D.E.F.G.z.H.I.J.F.K.L.M.N.N.N.O.P.  ",
"  Q.R.S.T.U.V.W.X.Y.Y.Y.Z.`. +.+++R.R.R.R.@+#+  ",
"  #+$+!.%+&+*+=+-+@+@+@+C.;+>+,+'+$+$+$+@+)+!+  ",
"  ~+{+]+^+/+(+]+_+:+$+:+<+[+}+|+1+2+3+4+5+6+7+  ",
"  8+%+9+0+a+b+c+d+e+f+V.g+h+i+j+k+l+m+n+o+p+q+  ",
"  r+s+t+u+v+w+x+y+z+)+A+B+C+D+E+F+G+H+I+J+K+L+  ",
"  M+G+N+N+O+P+O+Q+Q+G+G+G+R+R+S+S+T+T+T+U+V+W+  ",
"  X+Y+Z+Z+Z+`+ @ @.@.@.@.@+@@@@@@@Y+Y+Y+Y+A+#@  ",
"  $@#@#@#@%@X+&@&@X+X+X+X+X+X+X+X+X+X+X+X+#@*@  ",
"                                                "};
