/* XPM */
static char * icon_gui_24_xpm[] = {
"24 24 229 2",
"  	c None",
". 	c #979795",
"+ 	c #8C8C8C",
"@ 	c #8C8C8A",
"# 	c #AFAFAE",
"$ 	c #D5D5D4",
"% 	c #E0E0DF",
"& 	c #C4C4C3",
"* 	c #9A9A98",
"= 	c #FCFCFB",
"- 	c #FCB9AB",
"; 	c #FCD9D2",
"> 	c #FBFBFA",
", 	c #A8A8A7",
"' 	c #FD6A4D",
") 	c #FCA18F",
"! 	c #FBFBF9",
"~ 	c #FD6042",
"{ 	c #FC9E8C",
"] 	c #FCDED7",
"^ 	c #FCECE8",
"/ 	c #FCFCFA",
"( 	c #FAFAF9",
"_ 	c #FAFAF7",
": 	c #F9F9F6",
"< 	c #F9F9F5",
"[ 	c #A7A7A5",
"} 	c #FD6243",
"| 	c #FC9C89",
"1 	c #FD8971",
"2 	c #FD6F53",
"3 	c #FD795F",
"4 	c #FCBBAF",
"5 	c #FAFAF8",
"6 	c #F9F9F7",
"7 	c #F8F8F5",
"8 	c #F7F7F2",
"9 	c #F5F5F0",
"0 	c #F6F6F0",
"a 	c #A4A4A1",
"b 	c #E0E0DE",
"c 	c #FD694C",
"d 	c #FD7257",
"e 	c #FD7156",
"f 	c #FCD7CF",
"g 	c #FCA290",
"h 	c #FD765A",
"i 	c #FD8E79",
"j 	c #FAE6E0",
"k 	c #F8F8F4",
"l 	c #F7F7F3",
"m 	c #F6F6F2",
"n 	c #F5F5EF",
"o 	c #A4A4A0",
"p 	c #8A8A89",
"q 	c #DFDFDD",
"r 	c #FD7155",
"s 	c #FE401C",
"t 	c #FC866F",
"u 	c #FACCC2",
"v 	c #FB7D63",
"w 	c #FC7559",
"x 	c #F7C5B8",
"y 	c #898986",
"z 	c #DCDCD8",
"A 	c #F7F7F4",
"B 	c #FC7156",
"C 	c #FE3D18",
"D 	c #F9C3B7",
"E 	c #F5F5F1",
"F 	c #F99A84",
"G 	c #FA755A",
"H 	c #F89983",
"I 	c #F5EFE8",
"J 	c #888885",
"K 	c #DADAD5",
"L 	c #FA8167",
"M 	c #FA8168",
"N 	c #F7B8A7",
"O 	c #FA7458",
"P 	c #FA785D",
"Q 	c #F6CBBF",
"R 	c #DADAD4",
"S 	c #FA846A",
"T 	c #F7BAAB",
"U 	c #F5F0EA",
"V 	c #F9937C",
"W 	c #FA6F52",
"X 	c #F98268",
"Y 	c #F6D4C9",
"Z 	c #D9D9D4",
"` 	c #F4F4EE",
" .	c #F98369",
"..	c #F6B9AA",
"+.	c #F3F3ED",
"@.	c #F5D0C5",
"#.	c #F98970",
"$.	c #868684",
"%.	c #D6D6D1",
"&.	c #F1F1EB",
"*.	c #F88268",
"=.	c #F3B7A7",
"-.	c #F0F0EA",
";.	c #EFF0EA",
">.	c #EFEFE9",
",.	c #EEEFE9",
"'.	c #F0F1EA",
").	c #F59F8B",
"!.	c #F6DBD2",
"~.	c #848481",
"{.	c #D2D3CE",
"].	c #ECEDE7",
"^.	c #F68066",
"/.	c #F0B4A5",
"(.	c #ECECE6",
"_.	c #EBECE6",
":.	c #EBEBE5",
"<.	c #EAEBE5",
"[.	c #E9EAE4",
"}.	c #F4846C",
"|.	c #F77F66",
"1.	c #EEEEE8",
"2.	c #A0A09C",
"3.	c #82827E",
"4.	c #CFCFCA",
"5.	c #E8E9E3",
"6.	c #F47E64",
"7.	c #EEB1A1",
"8.	c #E7E8E2",
"9.	c #E6E8E2",
"0.	c #E6E7E1",
"a.	c #E8CDC2",
"b.	c #F66448",
"c.	c #E6D3CB",
"d.	c #E5E6E0",
"e.	c #999A96",
"f.	c #80807D",
"g.	c #CBCCC7",
"h.	c #E4E6E0",
"i.	c #F27D62",
"j.	c #EBAF9F",
"k.	c #E4E5DF",
"l.	c #E3E5DF",
"m.	c #E3E4DE",
"n.	c #E2E4DE",
"o.	c #E2E3DE",
"p.	c #E2E3DD",
"q.	c #E1E3DD",
"r.	c #F26F55",
"s.	c #E9AA99",
"t.	c #E1E2DC",
"u.	c #969793",
"v.	c #7D7E7A",
"w.	c #C7C9C3",
"x.	c #E0E2DC",
"y.	c #F17B61",
"z.	c #E8AC9D",
"A.	c #E0E1DB",
"B.	c #DFE1DB",
"C.	c #DFE0DB",
"D.	c #DFE0DA",
"E.	c #DEE0DA",
"F.	c #DEDFDA",
"G.	c #DDDFD9",
"H.	c #EB907B",
"I.	c #EF7B62",
"J.	c #DDDED9",
"K.	c #939591",
"L.	c #7A7C79",
"M.	c #C3C5C0",
"N.	c #DCDED8",
"O.	c #EF795F",
"P.	c #E5AA9A",
"Q.	c #DBDED8",
"R.	c #DBDDD8",
"S.	c #DBDDD7",
"T.	c #DADDD7",
"U.	c #DADCD7",
"V.	c #DADCD6",
"W.	c #D9DCD6",
"X.	c #D9DBD6",
"Y.	c #E0B1A4",
"Z.	c #F26144",
"`.	c #D8DAD4",
" +	c #91928E",
".+	c #797A76",
"++	c #CC9B8D",
"@+	c #E1AE9F",
"#+	c #F16649",
"$+	c #E3A697",
"%+	c #D7DAD4",
"&+	c #D7D9D4",
"*+	c #D7D9D3",
"=+	c #D6D9D3",
"-+	c #D6D8D3",
";+	c #D5D8D2",
">+	c #D5D7D2",
",+	c #EE6A50",
"'+	c #E8826D",
")+	c #8E908C",
"!+	c #767875",
"~+	c #D96B53",
"{+	c #F35334",
"]+	c #F15B3D",
"^+	c #DBB3A7",
"/+	c #D3D6D0",
"(+	c #D3D5D0",
"_+	c #D2D5CF",
":+	c #D2D4CF",
"<+	c #D1D4CE",
"[+	c #DCA191",
"}+	c #E77B63",
"|+	c #8F7F79",
"1+	c #757672",
"2+	c #A5A7A2",
"3+	c #D0D3CD",
"4+	c #CFD3CD",
"5+	c #CFD2CD",
"6+	c #CFD2CC",
"7+	c #CED2CC",
"8+	c #CED1CC",
"9+	c #CED1CB",
"0+	c #CDD1CB",
"a+	c #BCBFBA",
"b+	c #81837F",
"c+	c #81837E",
"d+	c #898C88",
"e+	c #898C87",
"f+	c #8A8C88",
"                                                ",
"    . + + + + + + @ @ @ @ @ @ @ + @ @ + + +     ",
"  . # $ % % % % % % % % % % % % % % % % % & *   ",
"  + $ = - ; = = = = = = = = = = = = = > > > ,   ",
"  + % = ' ) = = = = = = = = = = = > > ! ! ! ,   ",
"  + % = ~ { = ] ^ = = = = = > / > ( _ : < : [   ",
"  + % = } | 1 2 3 4 = / > ! ! 5 6 7 8 9 9 0 a   ",
"  @ b > c d e f g h i j : k l 8 m 9 n n n n o   ",
"  p q ! r s t ! 5 u v w x n n n n n n n n n o   ",
"  y z A B C D k l 8 E F G H I n n n n n n n o   ",
"  J K n L M 9 n n n n n N O P Q n n n n n n o   ",
"  J R n S T n n n n n n n U V W X Y n n n n o   ",
"  J Z `  ...+.+.+.+.+.+.+.+.+.@.#.P T n n n o   ",
"  $.%.&.*.=.-.-.-.;.;.>.>.,.,.>.'.).G !.n n o   ",
"  ~.{.].^./.].(._._._._.:.<.<.<.<.[.}.|.1.>.2.  ",
"  3.4.5.6.7.5.5.8.8.8.8.8.9.0.0.0.0.a.b.c.d.e.  ",
"  f.g.h.i.j.k.l.l.l.m.m.n.n.n.o.p.q.q.r.s.t.u.  ",
"  v.w.x.y.z.A.B.B.B.C.D.E.E.E.E.F.G.G.H.I.J.K.  ",
"  L.M.N.O.P.Q.R.S.S.S.T.U.U.V.V.W.W.X.Y.Z.`. +  ",
"  .+++@+#+$+%+%+%+&+*+=+=+=+-+-+;+;+;+>+,+'+)+  ",
"  !+~+{+]+^+/+/+/+(+_+_+_+_+_+:+<+<+<+<+[+}+|+  ",
"  1+2+3+3+4+5+6+6+6+7+7+8+8+9+9+9+0+0+0+0+a+b+  ",
"    c+d+d+d+d+d+d+d+d+d+e+d+d+d+d+d+f+f+f+b+L.  ",
"                                                "};
