/* XPM */
static char * icon_datablock_viewer_24_xpm[] = {
"24 24 402 2",
"  	c None",
". 	c #D8D8CC",
"+ 	c #E0E0D4",
"@ 	c #E1E1D6",
"# 	c #E0E1D7",
"$ 	c #DEE1D7",
"% 	c #DDE1D7",
"& 	c #DBE1D7",
"* 	c #DAE1D7",
"= 	c #DBE1D8",
"- 	c #DAE1D8",
"; 	c #DCE2D8",
"> 	c #DBE2D8",
", 	c #D9E0D6",
"' 	c #D2D8CF",
") 	c #E0DED4",
"! 	c #F7F7E9",
"~ 	c #F9F9EB",
"{ 	c #F9F9EC",
"] 	c #F9F9ED",
"^ 	c #F8F9EE",
"/ 	c #F9F9EE",
"( 	c #FAFAF0",
"_ 	c #EFF2E6",
": 	c #F5F7EC",
"< 	c #F5F5EB",
"[ 	c #FCFBF1",
"} 	c #F6F7EC",
"| 	c #DFE0D6",
"1 	c #E1DDD5",
"2 	c #FBFBED",
"3 	c #FBFBEE",
"4 	c #FBFBEF",
"5 	c #FEFDF2",
"6 	c #D5E4CC",
"7 	c #33B234",
"8 	c #58BD57",
"9 	c #29C32A",
"0 	c #BADFB2",
"a 	c #FCFBF0",
"b 	c #E1E1D7",
"c 	c #E1D9D5",
"d 	c #F9F8EB",
"e 	c #FAECDC",
"f 	c #FAE8D8",
"g 	c #FBFCEF",
"h 	c #FEFDF1",
"i 	c #D6E4CD",
"j 	c #3CBE3C",
"k 	c #5FC65D",
"l 	c #2CE22D",
"m 	c #27DC2A",
"n 	c #9DDE95",
"o 	c #FEFAEF",
"p 	c #F9F9EA",
"q 	c #E1E1D5",
"r 	c #E1D7D8",
"s 	c #F9F3EB",
"t 	c #FBFAEE",
"u 	c #F9DFCD",
"v 	c #F9CEB9",
"w 	c #FBFDF0",
"x 	c #FEFDF0",
"y 	c #D6E4CB",
"z 	c #3CBD3D",
"A 	c #5FC55D",
"B 	c #2EE02E",
"C 	c #20EA23",
"D 	c #19EB1F",
"E 	c #84D77A",
"F 	c #FEFAE7",
"G 	c #E0E0CE",
"H 	c #E1D7DC",
"I 	c #F9EEEC",
"J 	c #FBF7EE",
"K 	c #FADECD",
"L 	c #F8C6AF",
"M 	c #FAEBDB",
"N 	c #FAF0E1",
"O 	c #FBFCEE",
"P 	c #FBFBEC",
"Q 	c #FEFDED",
"R 	c #D6E4C9",
"S 	c #3DBD3D",
"T 	c #5FC45C",
"U 	c #2FDF2F",
"V 	c #21E924",
"W 	c #0FF417",
"X 	c #18EA1D",
"Y 	c #CEE3B6",
"Z 	c #E3E0C9",
"` 	c #E1D7DE",
" .	c #F9EDEF",
"..	c #FBF2EE",
"+.	c #FADBCD",
"@.	c #F8BFA8",
"#.	c #F8CFBB",
"$.	c #F8CBB7",
"%.	c #F8CBB5",
"&.	c #F9CDB7",
"*.	c #FBF8E7",
"=.	c #FAFBE6",
"-.	c #FAFAE2",
";.	c #FCFBE3",
">.	c #D5E2C0",
",.	c #5EC55A",
"'.	c #1DEA22",
").	c #36DF37",
"!.	c #C1E4AA",
"~.	c #FBF8DC",
"{.	c #DEDEC3",
"].	c #E0D2DE",
"^.	c #F9E9ED",
"/.	c #FBEDEB",
"(.	c #F9D7CB",
"_.	c #F6B79F",
":.	c #F7B59B",
"<.	c #FBFFF1",
"[.	c #FBFBE8",
"}.	c #F9E8D2",
"|.	c #F5B495",
"1.	c #F8F4D8",
"2.	c #F8F9DC",
"3.	c #FBFADD",
"4.	c #D4E2BD",
"5.	c #3BBE3B",
"6.	c #5EC559",
"7.	c #2BE32C",
"8.	c #3DCE3C",
"9.	c #D5E8BD",
"0.	c #F9F8DC",
"a.	c #F6F6D9",
"b.	c #DEDEC4",
"c.	c #DFCBDD",
"d.	c #F7E1EB",
"e.	c #FAE4E3",
"f.	c #F8D4C5",
"g.	c #F38361",
"h.	c #F8E4C9",
"i.	c #FAFCE3",
"j.	c #F9F9DF",
"k.	c #F8F7DB",
"l.	c #F5AA87",
"m.	c #F7E3C5",
"n.	c #FAF8DD",
"o.	c #DCE8C6",
"p.	c #55B852",
"q.	c #76C56F",
"r.	c #54C251",
"s.	c #E6EBCD",
"t.	c #FBFADF",
"u.	c #F8F8DC",
"v.	c #F6F6DB",
"w.	c #DEDEC6",
"x.	c #DEC9DC",
"y.	c #F6DCEA",
"z.	c #F8DEE0",
"A.	c #F6CBB9",
"B.	c #F6C0A0",
"C.	c #F8FDDF",
"D.	c #F8F8DB",
"E.	c #F8F8DD",
"F.	c #F6F9DE",
"G.	c #F3FFE6",
"H.	c #EECCAE",
"I.	c #EFC3A5",
"J.	c #F0EFD4",
"K.	c #F4FFEA",
"L.	c #F4FBE5",
"M.	c #F6FAE7",
"N.	c #EFF9E1",
"O.	c #EDF8DF",
"P.	c #EBF6DD",
"Q.	c #D5DEC8",
"R.	c #DEC9DD",
"S.	c #F6DCEE",
"T.	c #F8DEE3",
"U.	c #F6C6B6",
"V.	c #F8E6C6",
"W.	c #F8F9DA",
"X.	c #EFF8DE",
"Y.	c #E6F8DF",
"Z.	c #E2F8E0",
"`.	c #E1F9E3",
" +	c #E1F2DD",
".+	c #E4BDA3",
"++	c #E4B99E",
"@+	c #E0FCEA",
"#+	c #E0F8E6",
"$+	c #E1F8E7",
"%+	c #DFF6E5",
"&+	c #CADECF",
"*+	c #F6DDF2",
"=+	c #F8DDEA",
"-+	c #F6C2B8",
";+	c #F6E3C5",
">+	c #F8F8DA",
",+	c #F0F8DE",
"'+	c #E1F8DD",
")+	c #DEF7E1",
"!+	c #DEF7E5",
"~+	c #DBF7E6",
"{+	c #DCF7E7",
"]+	c #DEFBEE",
"^+	c #E0ECDD",
"/+	c #E3B49D",
"(+	c #DEF0E4",
"_+	c #DDF8EE",
":+	c #DDF8EF",
"<+	c #DBF6ED",
"[+	c #C6DED6",
"}+	c #DCC6DB",
"|+	c #F3DBF2",
"1+	c #F5DCF1",
"2+	c #F4BCBD",
"3+	c #F4DEC4",
"4+	c #F5F6D6",
"5+	c #F5F5D8",
"6+	c #EDF5DA",
"7+	c #DEF4DA",
"8+	c #DBF4DE",
"9+	c #DAF4E0",
"0+	c #D9F4E0",
"a+	c #DAF4E1",
"b+	c #D9F5E4",
"c+	c #DAE8D6",
"d+	c #DFB9A3",
"e+	c #D8FCF5",
"f+	c #DAF8F1",
"g+	c #DBF8F2",
"h+	c #D9F7F0",
"i+	c #C4DED9",
"j+	c #D9C4D8",
"k+	c #F0D9EF",
"l+	c #F1DBF1",
"m+	c #F1BBC3",
"n+	c #F0D8C5",
"o+	c #F1F3D3",
"p+	c #F1F2D5",
"q+	c #F0F1D6",
"r+	c #EBF1D7",
"s+	c #E6F1D8",
"t+	c #E4F1D7",
"u+	c #E5F1D7",
"v+	c #E7F1D7",
"w+	c #EAF1D6",
"x+	c #EBF0D6",
"y+	c #EBF4D9",
"z+	c #EBC8AA",
"A+	c #DFD6BE",
"B+	c #D2F3E9",
"C+	c #CFF1EB",
"D+	c #CDEFE9",
"E+	c #B9D9D3",
"F+	c #D6C1D6",
"G+	c #EDD6EC",
"H+	c #EFD8EF",
"I+	c #EFB9C4",
"J+	c #EFCDC9",
"K+	c #EFEAD0",
"L+	c #EFEFD0",
"M+	c #EEEFD1",
"N+	c #EEEFD2",
"O+	c #EEEFD0",
"P+	c #EDEFD0",
"Q+	c #EDEDCE",
"R+	c #EDECCE",
"S+	c #EDEFD4",
"T+	c #EDA285",
"U+	c #E2EDD9",
"V+	c #CBEEE5",
"W+	c #C6EBE4",
"X+	c #B3D4CE",
"Y+	c #D4BFD3",
"Z+	c #EAD3E9",
"`+	c #ECD5EC",
" @	c #ECB6C0",
".@	c #EBC9D7",
"+@	c #EBD4D4",
"@@	c #EBDECE",
"#@	c #EBE4CC",
"$@	c #EBE8CC",
"%@	c #EBE9CC",
"&@	c #EAE9CC",
"*@	c #EAE8CC",
"=@	c #EAE5CC",
"-@	c #EAE1CC",
";@	c #EADCCC",
">@	c #EAD8D0",
",@	c #EA9C8D",
"'@	c #EAD2D7",
")@	c #D3E7DB",
"!@	c #C3E6E2",
"~@	c #B0D0CC",
"{@	c #D1BCD0",
"]@	c #E7D0E6",
"^@	c #E8D2E9",
"/@	c #E9B4BD",
"(@	c #E9C9DC",
"_@	c #E8D1E6",
":@	c #E8D0E0",
"<@	c #E8CFD9",
"[@	c #E7CFD2",
"}@	c #E7D0CF",
"|@	c #E7D1CC",
"1@	c #E7D1CB",
"2@	c #E7D0C9",
"3@	c #E7D1C9",
"4@	c #E6D0C9",
"5@	c #E6D0CA",
"6@	c #E7BAB2",
"7@	c #E8B4BA",
"8@	c #DFDDD7",
"9@	c #C0E5DF",
"0@	c #AECDC9",
"a@	c #CEB9CD",
"b@	c #E4C6DA",
"c@	c #E6C8DC",
"d@	c #E7AAB1",
"e@	c #E5C5D8",
"f@	c #E5CFE6",
"g@	c #E5CFE5",
"h@	c #E5CEE5",
"i@	c #E5CCE2",
"j@	c #E5CBDD",
"k@	c #E5CBD7",
"l@	c #E4CAD1",
"m@	c #E4C9CB",
"n@	c #E4CAC6",
"o@	c #E4CDC6",
"p@	c #E4CEC6",
"q@	c #E4C6BD",
"r@	c #E5A5A2",
"s@	c #E4C9D0",
"t@	c #C1DDD4",
"u@	c #ABCBC7",
"v@	c #CBB5C8",
"w@	c #E3ADB7",
"x@	c #E4ABB5",
"y@	c #E5A4AA",
"z@	c #E2C6DA",
"A@	c #E2CCE2",
"B@	c #E2CBE2",
"C@	c #E1CBE2",
"D@	c #E1CBE1",
"E@	c #E1C9DD",
"F@	c #E1C8D3",
"G@	c #E1C6CA",
"H@	c #E1C7C4",
"I@	c #E1CBC3",
"J@	c #E0CEC3",
"K@	c #E1CBC1",
"L@	c #E2AFA9",
"M@	c #E4A8AF",
"N@	c #C7C9B6",
"O@	c #A7CAC7",
"P@	c #C8B5C9",
"Q@	c #DEC8DF",
"R@	c #DFCAE1",
"S@	c #DFC9E1",
"T@	c #DFC8E0",
"U@	c #DFC8DF",
"V@	c #DEC9DF",
"W@	c #DEC7DC",
"X@	c #DEC5D3",
"Y@	c #DEC3C8",
"Z@	c #DDC5C1",
"`@	c #DDCAC0",
" #	c #DDCBC0",
".#	c #DDC5C3",
"+#	c #DEC5DA",
"@#	c #C5DAD0",
"##	c #A5C6C2",
"$#	c #C4B1C5",
"%#	c #D9C4DA",
"&#	c #DBC5DC",
"*#	c #DAC4DB",
"=#	c #DAC3DB",
"-#	c #DAC3D9",
";#	c #D9C1CF",
">#	c #D9C1C5",
",#	c #D9C1BD",
"'#	c #D9C7BC",
")#	c #D9C9BC",
"!#	c #D9C8BC",
"~#	c #D9C3BF",
"{#	c #DAC1D4",
"]#	c #C6D7CF",
"^#	c #A2C3C0",
"/#	c #BCA9BD",
"(#	c #C3B0C4",
"_#	c #C4B2C5",
":#	c #C4AFBC",
"<#	c #C4AEB2",
"[#	c #C4AFAB",
"}#	c #C4B4AA",
"|#	c #C4B6AA",
"1#	c #C4B5AA",
"2#	c #C4B0AC",
"3#	c #C5AEC0",
"4#	c #B4C2B7",
"5#	c #9CBEBB",
"                                                ",
"  . + @ @ # $ % & * = - - * * ; = > * * * , '   ",
"  ) ! ~ { ] ] ] ] ^ / ^ ^ ^ ( _ : < [ ^ ^ } |   ",
"  1 ~ 2 2 3 3 4 4 4 4 4 4 5 6 7 8 9 0 a 4 ] b   ",
"  c d 2 e f g 3 3 3 3 3 3 h i j k l m n o p q   ",
"  r s t u v w 2 2 2 2 2 2 x y z A B C D E F G   ",
"  H I J K L 2 M N O 2 2 P Q R S T U V W X Y Z   ",
"  `  ...+.@.#.$.%.&.*.=.-.;.>.j ,.B '.).!.~.{.  ",
"  ].^./.(._.:.<.[.}.|.1.2.3.4.5.6.7.8.9.0.a.b.  ",
"  c.d.e.f.g.h.i.j.j.k.l.m.n.o.p.q.r.s.t.u.v.w.  ",
"  x.y.z.A.B.C.D.u.E.F.G.H.I.J.K.L.M.N.O.O.P.Q.  ",
"  R.S.T.U.V.W.D.E.X.Y.Z.`. +.+++@+#+$+$+$+%+&+  ",
"  R.*+=+-+;+>+D.,+'+)+!+~+{+]+^+/+(+_+_+:+<+[+  ",
"  }+|+1+2+3+4+5+6+7+8+9+0+0+a+b+c+d+e+f+g+h+i+  ",
"  j+k+l+m+n+o+p+q+r+s+t+u+v+w+x+y+z+A+B+C+D+E+  ",
"  F+G+H+I+J+K+L+M+M+N+M+M+O+P+Q+R+S+T+U+V+W+X+  ",
"  Y+Z+`+ @.@+@@@#@$@%@%@&@*@=@-@;@>@,@'@)@!@~@  ",
"  {@]@^@/@(@_@:@<@[@}@|@1@2@3@3@4@5@6@7@8@9@0@  ",
"  a@b@c@d@e@f@g@h@h@i@j@k@l@m@n@o@p@q@r@s@t@u@  ",
"  v@w@x@y@z@A@B@A@C@B@D@E@F@G@H@I@J@K@L@M@N@O@  ",
"  P@Q@R@S@T@U@V@Q@V@V@Q@W@X@Y@Z@`@ # #.#+#@###  ",
"  $#%#&#*#*#*#*#*#*#*#=#-#;#>#,#'#)#!#~#{#]#^#  ",
"  /#(#_#$#$#$#$#$#$#_#$#$#:#<#[#}#|#1#2#3#4#5#  ",
"                                                "};
