/* XPM */
static char * icon_gde_48_xpm[] = {
"48 48 611 2",
"  	c None",
". 	c #D5D5D2",
"+ 	c #D7D7D4",
"@ 	c #D9D9D6",
"# 	c #F1F1EE",
"$ 	c #F8F8F5",
"% 	c #F6F6F3",
"& 	c #F3F3F3",
"* 	c #E8E8F4",
"= 	c #EBEBF4",
"- 	c #F5F5F3",
"; 	c #EDEDF3",
"> 	c #E9E9F4",
", 	c #F7F7F3",
"' 	c #EFEFF3",
") 	c #E7E7F4",
"! 	c #ECECF3",
"~ 	c #EFEFEC",
"{ 	c #6B6BFA",
"] 	c #6464FA",
"^ 	c #6D6DFA",
"/ 	c #C9C9F5",
"( 	c #7B7BF9",
"_ 	c #4646FC",
": 	c #5F5FFA",
"< 	c #7070FA",
"[ 	c #9595F8",
"} 	c #4C4CFB",
"| 	c #9F9FF8",
"1 	c #D7D8D7",
"2 	c #F7F7F4",
"3 	c #FBFBF3",
"4 	c #8C8CF8",
"5 	c #FFFFF3",
"6 	c #5353FB",
"7 	c #4E4EFB",
"8 	c #2424FD",
"9 	c #8686F8",
"0 	c #7D7DF9",
"a 	c #4848FB",
"b 	c #BDBDF6",
"c 	c #D5D5F4",
"d 	c #F6F6F2",
"e 	c #D6D7D6",
"f 	c #FDFDF3",
"g 	c #6A6AFA",
"h 	c #7474F9",
"i 	c #9C9CF7",
"j 	c #0000FF",
"k 	c #7E7EF9",
"l 	c #5757FB",
"m 	c #5555FB",
"n 	c #FFFFF2",
"o 	c #4A4AFB",
"p 	c #5F5FF9",
"q 	c #8383F8",
"r 	c #1E1EFD",
"s 	c #A2A2F6",
"t 	c #F7F7F1",
"u 	c #F5F5F1",
"v 	c #D8D8D5",
"w 	c #D5D5D1",
"x 	c #ECECE9",
"y 	c #D5D4D2",
"z 	c #ECF0E9",
"A 	c #B1C6AF",
"B 	c #F3F5ED",
"C 	c #F8F8F3",
"D 	c #BFBFF5",
"E 	c #2A2AFD",
"F 	c #9090F8",
"G 	c #3636FD",
"H 	c #8080F9",
"I 	c #5151FB",
"J 	c #2929FD",
"K 	c #1717FE",
"L 	c #C3C3F3",
"M 	c #7373F8",
"N 	c #3636FC",
"O 	c #A1A1F5",
"P 	c #BABAF3",
"Q 	c #F1F1EF",
"R 	c #F3F3EF",
"S 	c #D7D7D3",
"T 	c #D3D3D0",
"U 	c #D4D3D1",
"V 	c #BBB7B8",
"W 	c #BBD4B9",
"X 	c #628660",
"Y 	c #B0BFCB",
"Z 	c #F6F6F6",
"` 	c #D5D5F5",
" .	c #A8A8F6",
"..	c #B7B7F5",
"+.	c #EEEEF3",
"@.	c #BDBDF5",
"#.	c #9F9FF5",
"$.	c #AEAEF4",
"%.	c #D9D9F0",
"&.	c #F4F4ED",
"*.	c #C6C6EF",
"=.	c #9C9CF2",
"-.	c #A0A0F1",
";.	c #BDBDEF",
">.	c #EFEFEB",
",.	c #F1F1EB",
"'.	c #F3F3EE",
").	c #D4D4D0",
"!.	c #D1D1CC",
"~.	c #EDEDEA",
"{.	c #CDCDCA",
"].	c #F6F5F3",
"^.	c #7A8B80",
"/.	c #8787EB",
"(.	c #7E7DCD",
"_.	c #D3D3E0",
":.	c #E7E7EE",
"<.	c #F7F7F2",
"[.	c #F8F8F2",
"}.	c #F6F6F0",
"|.	c #F7F7EE",
"1.	c #F5F5ED",
"2.	c #F1F1EC",
"3.	c #F0F0EB",
"4.	c #F1F1E9",
"5.	c #F2F2E8",
"6.	c #F1F1E7",
"7.	c #F0F0E7",
"8.	c #EFEFE9",
"9.	c #D3D3CD",
"0.	c #D0D0CA",
"a.	c #FAFAF7",
"b.	c #FAFBF7",
"c.	c #888687",
"d.	c #EFEFF0",
"e.	c #8D8CB2",
"f.	c #34329E",
"g.	c #C1C0DC",
"h.	c #FEFEF8",
"i.	c #F4F4F0",
"j.	c #F4F4EF",
"k.	c #F2F2EE",
"l.	c #F2F2ED",
"m.	c #F0F0EA",
"n.	c #EEEEE8",
"o.	c #EDEDE7",
"p.	c #EDEDE6",
"q.	c #F1F1E6",
"r.	c #EEEEE6",
"s.	c #EFEFE8",
"t.	c #CDCDC8",
"u.	c #F5F5F2",
"v.	c #E9E9E6",
"w.	c #929191",
"x.	c #FBFBF8",
"y.	c #EAEAE8",
"z.	c #C6C6D8",
"A.	c #9291C9",
"B.	c #7A7887",
"C.	c #83807C",
"D.	c #EEEEEA",
"E.	c #E8E8E7",
"F.	c #B3B3ED",
"G.	c #DDDDE8",
"H.	c #D1D1CB",
"I.	c #CDCDC7",
"J.	c #D4D4D1",
"K.	c #D9D9D5",
"L.	c #F8F8F4",
"M.	c #E7E6E4",
"N.	c #E8E8E5",
"O.	c #C1C0BE",
"P.	c #7B7979",
"Q.	c #E2E2DE",
"R.	c #FFFFF6",
"S.	c #6362C7",
"T.	c #7E7DB5",
"U.	c #F1F1EA",
"V.	c #F0F0E9",
"W.	c #EEEEE7",
"X.	c #EFEFE6",
"Y.	c #D1D1DE",
"Z.	c #6463CB",
"`.	c #D2D2E4",
" +	c #D8D8D4",
".+	c #E6E6E3",
"++	c #F0F0EC",
"@+	c #E6E6E2",
"#+	c #939290",
"$+	c #CBCBF2",
"%+	c #8786CB",
"&+	c #E3E3E2",
"*+	c #F2F2EC",
"=+	c #EFEFE7",
"-+	c #BEBEE1",
";+	c #8A88B9",
">+	c #DCDDDC",
",+	c #F5F5F0",
"'+	c #F4F5F1",
")+	c #F4F4F1",
"!+	c #F9F9F5",
"~+	c #7F7E7D",
"{+	c #F1F1ED",
"]+	c #F3F3ED",
"^+	c #D9D9DF",
"/+	c #7979C0",
"(+	c #EBEAF0",
"_+	c #DAD9E6",
":+	c #4F4EC9",
"<+	c #B7B7E4",
"[+	c #F2F2E6",
"}+	c #D4D4CF",
"|+	c #EAEAE5",
"1+	c #8F8F8C",
"2+	c #F6F6F1",
"3+	c #EDEDEC",
"4+	c #7170D3",
"5+	c #5C5BA7",
"6+	c #C5C4BA",
"7+	c #ECECE6",
"8+	c #8E8CAF",
"9+	c #6C6983",
"0+	c #F2F2E9",
"a+	c #CECEC9",
"b+	c #D2D2CC",
"c+	c #DBDBD5",
"d+	c #DAD9D4",
"e+	c #B6B5B1",
"f+	c #807F7D",
"g+	c #E5E5DF",
"h+	c #F0F0E8",
"i+	c #E1E2E8",
"j+	c #5E5C8F",
"k+	c #ADACAB",
"l+	c #BDBCDD",
"m+	c #8482A0",
"n+	c #A5A39E",
"o+	c #E7E7E1",
"p+	c #D6D6CF",
"q+	c #B6B4AF",
"r+	c #EBEBE5",
"s+	c #8C8A87",
"t+	c #C9C8D3",
"u+	c #A8A7C3",
"v+	c #F0F0E6",
"w+	c #C8C8EC",
"x+	c #5251C9",
"y+	c #CECEDE",
"z+	c #807F7C",
"A+	c #ECECE4",
"B+	c #E4E4E2",
"C+	c #9A9AC1",
"D+	c #E0E0E3",
"E+	c #F1F1E8",
"F+	c #B4B4D1",
"G+	c #9090C5",
"H+	c #F3F3E9",
"I+	c #EAEAE3",
"J+	c #DEDDD7",
"K+	c #8585D1",
"L+	c #9898DF",
"M+	c #CDCCCA",
"N+	c #545384",
"O+	c #DFDFD2",
"P+	c #E7E6E0",
"Q+	c #E0E0D9",
"R+	c #B6B5B0",
"S+	c #EAE9E3",
"T+	c #787774",
"U+	c #DBDAD4",
"V+	c #CFCFDE",
"W+	c #8C8BBD",
"X+	c #EDECE6",
"Y+	c #EEEFE7",
"Z+	c #A4A3BE",
"`+	c #6D6B76",
" @	c #E2E1DA",
".@	c #B2B1AC",
"+@	c #E7E8E1",
"@@	c #8B8987",
"#@	c #EFEEE8",
"$@	c #ECECE5",
"%@	c #F2F2E7",
"&@	c #7A78AE",
"*@	c #E2E2DD",
"=@	c #EBEBE4",
"-@	c #E1E1E5",
";@	c #9090BF",
">@	c #E7E7E5",
",@	c #EDEEE6",
"'@	c #EBECE4",
")@	c #EAEBE4",
"!@	c #E9E9E2",
"~@	c #80807D",
"{@	c #EAEAE4",
"]@	c #EBEAE4",
"^@	c #E9EAE4",
"/@	c #ECEDE5",
"(@	c #C7C7D3",
"_@	c #9290B4",
":@	c #F0F1E5",
"<@	c #B1B1E0",
"[@	c #7776D3",
"}@	c #CBCBC5",
"|@	c #CDCEC8",
"1@	c #EBECE5",
"2@	c #E9EAE3",
"3@	c #E9E9E3",
"4@	c #EDEDE5",
"5@	c #888784",
"6@	c #E8E9E2",
"7@	c #C4C4BA",
"8@	c #33317C",
"9@	c #B5B4BC",
"0@	c #E8E8E1",
"a@	c #9190B9",
"b@	c #CDCDD9",
"c@	c #C9C9C3",
"d@	c #E8E8E2",
"e@	c #E3E3DD",
"f@	c #DCDDD6",
"g@	c #AEACA9",
"h@	c #E4E5DE",
"i@	c #E2E1DB",
"j@	c #DEDEDA",
"k@	c #5F5FBD",
"l@	c #9696CC",
"m@	c #E7E7E0",
"n@	c #E6E7E0",
"o@	c #DEDFD8",
"p@	c #9E9D9B",
"q@	c #7777AB",
"r@	c #EDEDE2",
"s@	c #EBEAE3",
"t@	c #ECEDE6",
"u@	c #C8C9C3",
"v@	c #CBCCC6",
"w@	c #E6E7E1",
"x@	c #D2D2CB",
"y@	c #B1B0AB",
"z@	c #E3E4DD",
"A@	c #E0E1DA",
"B@	c #E6E6E0",
"C@	c #E6E6DF",
"D@	c #E7E7DF",
"E@	c #D3D3DB",
"F@	c #9A99BA",
"G@	c #E3E4DC",
"H@	c #E4E5DF",
"I@	c #E4E6DE",
"J@	c #E5E6DE",
"K@	c #E5E6DF",
"L@	c #D7D8CC",
"M@	c #4D4B72",
"N@	c #B1B2BB",
"O@	c #E9E9E1",
"P@	c #E4E4DE",
"Q@	c #C9CAC4",
"R@	c #C6C7C1",
"S@	c #CACAC5",
"T@	c #E5E5DE",
"U@	c #E6E5DE",
"V@	c #E7E9E1",
"W@	c #7B7A77",
"X@	c #E2E2DC",
"Y@	c #908FBE",
"Z@	c #CCCCD9",
"`@	c #E4E5DD",
" #	c #AFAFD8",
".#	c #706FC0",
"+#	c #E7E8DD",
"@#	c #E3E3DC",
"##	c #E2E3DC",
"$#	c #C7C8C2",
"%#	c #C3C4BE",
"&#	c #C5C5C0",
"*#	c #DFE0D9",
"=#	c #81817E",
"-#	c #E1E2DD",
";#	c #8C8BD3",
">#	c #7272D1",
",#	c #E0E1DC",
"'#	c #7E7EC6",
")#	c #999ADB",
"!#	c #E1E2DC",
"~#	c #E1E2DB",
"{#	c #C7C7C0",
"]#	c #C3C3BD",
"^#	c #C4C3BE",
"/#	c #C7C7C2",
"(#	c #DDDED7",
"_#	c #ADAEA9",
":#	c #E0E2DA",
"<#	c #7A7977",
"[#	c #D8D9D2",
"}#	c #E0E2DB",
"|#	c #D7D9DC",
"1#	c #7473AA",
"2#	c #B8B8BD",
"3#	c #E1E2D9",
"4#	c #D9DAD3",
"5#	c #CCCCC7",
"6#	c #9191B4",
"7#	c #DCDDD8",
"8#	c #DFE0DA",
"9#	c #E0E0DA",
"0#	c #C5C6C0",
"a#	c #C1C3BC",
"b#	c #C2C3BD",
"c#	c #C6C7C0",
"d#	c #C6C6C0",
"e#	c #C4C5BE",
"f#	c #A1A09C",
"g#	c #E6E7DC",
"h#	c #78789C",
"i#	c #2D2B98",
"j#	c #C4C5CD",
"k#	c #6F6E67",
"l#	c #413F88",
"m#	c #AAABD6",
"n#	c #DEDFD9",
"o#	c #DDDFD8",
"p#	c #DFE1DA",
"q#	c #C3C4BF",
"r#	c #BFC0BB",
"s#	c #C1C2BC",
"t#	c #C4C5BF",
"u#	c #81807E",
"v#	c #DEE0D9",
"w#	c #DBDCD9",
"x#	c #7D7EC9",
"y#	c #6B6BCB",
"z#	c #7574A2",
"A#	c #6463CD",
"B#	c #BFC0DF",
"C#	c #DCDED7",
"D#	c #C1C2BD",
"E#	c #BEBFBA",
"F#	c #C0C0BB",
"G#	c #DDDED8",
"H#	c #DEDED8",
"I#	c #7A7B77",
"J#	c #DEDED9",
"K#	c #DFDFDA",
"L#	c #DDDDD6",
"M#	c #DDDED6",
"N#	c #DCDED6",
"O#	c #DBDDD6",
"P#	c #9999D2",
"Q#	c #B8B9D4",
"R#	c #E0E1D7",
"S#	c #DCDDD5",
"T#	c #DBDCD5",
"U#	c #DADDD6",
"V#	c #DADCD5",
"W#	c #DCDDD7",
"X#	c #C0C1BC",
"Y#	c #BCBDB9",
"Z#	c #BEBFB9",
"`#	c #CCCDC6",
" $	c #ABAAA6",
".$	c #C5D2BF",
"+$	c #62825F",
"@$	c #CFD8CA",
"#$	c #E0E1DB",
"$$	c #DADDD5",
"%$	c #B3C7AF",
"&$	c #DBDED6",
"*$	c #CDCFC9",
"=$	c #DDDED9",
"-$	c #DCDFD7",
";$	c #B5C7B1",
">$	c #CFD6CA",
",$	c #DBDCD6",
"'$	c #BCBCB6",
")$	c #BDBEB8",
"!$	c #C0C2BB",
"~$	c #D9DBD4",
"{$	c #BEC0BB",
"]$	c #BCBEB9",
"^$	c #BDBFBA",
"/$	c #A8AAA5",
"($	c #989995",
"_$	c #82817F",
":$	c #98AD95",
"<$	c #4C6E4B",
"[$	c #748072",
"}$	c #908F8D",
"|$	c #7D8E7A",
"1$	c #577F54",
"2$	c #818F7E",
"3$	c #8F8F8B",
"4$	c #8D8F8A",
"5$	c #797A76",
"6$	c #8F908C",
"7$	c #8E8F8B",
"8$	c #90918D",
"9$	c #73726F",
"0$	c #8B8C88",
"a$	c #8D8E8A",
"b$	c #7E7F7C",
"c$	c #8E8F8A",
"d$	c #6F6E6C",
"e$	c #8C8D89",
"f$	c #878783",
"g$	c #8E8E8A",
"h$	c #898E85",
"i$	c #60865D",
"j$	c #8CAD89",
"k$	c #C1C1BD",
"l$	c #BABCB6",
"m$	c #BBBCB6",
"n$	c #BFC0BA",
"o$	c #D6D8D2",
"p$	c #DCDCD7",
"q$	c #B7C1B4",
"r$	c #DADBD5",
"s$	c #D4D6D0",
"t$	c #B7BAB3",
"u$	c #A6B5A1",
"v$	c #B7B9B2",
"w$	c #BCBDB7",
"x$	c #D8DAD3",
"y$	c #B9BAB5",
"z$	c #CFD1CB",
"A$	c #D7D9D3",
"B$	c #D7D9D2",
"C$	c #D3D4CE",
"D$	c #B4B5B0",
"E$	c #CACBC4",
"F$	c #B4B4AE",
"G$	c #C9CAC5",
"H$	c #D8D9D3",
"I$	c #D0D2CB",
"J$	c #AAABA5",
"K$	c #AABAA7",
"L$	c #AEB3A9",
"M$	c #D8DBD4",
"N$	c #BCBEB8",
"O$	c #B9BAB4",
"P$	c #BEC0B9",
"Q$	c #D7D8D2",
"R$	c #D8DAD4",
"S$	c #BABDB8",
"T$	c #CDCFC8",
"U$	c #AEAFAA",
"V$	c #AAACA6",
"W$	c #9FA09B",
"X$	c #A8A8A3",
"Y$	c #999995",
"Z$	c #D6D8D1",
"`$	c #DADCD4",
" %	c #A7A8A4",
".%	c #ABACA7",
"+%	c #D5D7D1",
"@%	c #D5D7D0",
"#%	c #CED0C9",
"$%	c #9A9B96",
"%%	c #A9AAA6",
"&%	c #A09F9B",
"*%	c #B6B7B1",
"=%	c #D6D9D2",
"-%	c #8A8A86",
";%	c #A0A09B",
">%	c #A6A6A2",
",%	c #A7A8A3",
"'%	c #BBBDB7",
")%	c #B7B9B3",
"!%	c #B9BBB5",
"~%	c #D6D7D1",
"{%	c #B9BBB6",
"]%	c #C4C5C0",
"^%	c #CECFC9",
"/%	c #D3D5CE",
"(%	c #BDBFB9",
"_%	c #D4D6CF",
":%	c #D1D3CC",
"<%	c #C2C3BE",
"[%	c #BEC0BA",
"}%	c #D2D4CD",
"|%	c #D3D6CF",
"1%	c #D3D5CF",
"2%	c #BDBEB9",
"3%	c #D2D5CD",
"4%	c #B6B8B2",
"5%	c #B8BAB4",
"6%	c #D4D7D0",
"7%	c #D3D6D0",
"8%	c #D3D5D0",
"9%	c #B7BAB6",
"0%	c #D5D6D0",
"a%	c #D4D5CE",
"b%	c #D3D6CE",
"c%	c #D2D4CE",
"d%	c #D2D5CE",
"e%	c #D1D4CD",
"f%	c #D2D3CE",
"g%	c #D1D3CD",
"h%	c #D1D4CE",
"i%	c #B6B6B0",
"j%	c #B6B8B4",
"k%	c #D0D3CC",
"l%	c #D0D2CC",
"m%	c #B3B6AF",
"n%	c #B5B7B1",
"o%	c #BEC1BC",
"p%	c #D1D4CC",
"q%	c #CFD2CB",
"r%	c #B3B5AF",
"s%	c #CBCEC7",
"t%	c #CBCDC7",
"                                                                                                ",
"                                                                                                ",
"      . . . . . . . . . . . . . . . . . . . . . . . . . . . . . . . . . . . . . . . . . .       ",
"    . . + @ @ @ @ @ @ @ @ @ @ @ @ @ @ @ @ @ @ @ @ @ @ @ @ @ @ @ @ @ @ @ @ @ @ @ @ @ @ + . .     ",
"    . + # $ $ $ $ $ $ $ $ $ $ $ $ $ $ $ $ $ $ $ $ $ $ $ $ $ $ $ $ $ $ $ $ $ $ $ $ $ $ # + .     ",
"    . @ $ % % % % % % % % % % % % % % % % % % % % % % % % % % % % % % % % % % % % % % $ @ .     ",
"    . @ $ % % % % % % % % % % % % % % % % % % % % % % % & * = - ; * > - , ' * ) ! % % $ @ .     ",
"    . @ $ % % % % % % % ~ % % % % % % % % % % % % % % ! { ] ^ / ( _ : < - [ } < | & % $ @ .     ",
"    . @ $ % % % % % % $ 1 2 % % % % % % % % % % % % 3 4 } ) & 5 6 7 - 8 9 0 a b c d d $ @ .     ",
"    . @ $ % % % % % 2 $ e $ % % % % % % % % % % % % f g h i j k l m n o p q r 7 s t u 2 v w     ",
"    . @ $ % % % % x y z A B , % % % % % % % % % % % C D E F G H I J q K L M N O P Q R u S T     ",
"    . @ $ % % % $ U V W X Y Z 2 % % % % % % % % % % % - `  ...+.@.#.$.%.&.*.=.-.;.>.,.'.).!.    ",
"    . @ $ % % % % ~.{.].^./.(._.:.- % % % % % % % % % % <.[.<.u }.|.1.2.3.4.5.6.7.8.8.,.9.0.    ",
"    . @ $ % % % % 2 a.b.c.= d.e.f.g.h.% % % % d d u u i.i.j.'.k.l.2.m.8.n.o.p.p.q.r.p.s.!.t.    ",
"    . @ $ % % % 2 u.v.$ w.x.2 y.z.A.B.C.D.u.u i.'.k.l.2.,.,.3.m.8.s.n.o.p.p.p.E.F.G.p.s.H.I.    ",
"    J.K.L.% % 2 M.N.O.% P.Q.2 % L.R.S.T.# j.l.2.U.m.V.8.8.8.s.n.W.W.p.p.p.p.X.Y.Z.`.r.s.H.I.    ",
"    T  +% u.d % .+++@+, #+x.% d d t $+%+&+*+m.s.n.o.p.p.p.p.p.p.p.p.p.p.p.=+-+;+>+r.p.s.H.I.    ",
"    !.w ,+R j.i.'+)+u.!+~+{+)+j.R '.]+^+/+(+U.p.p.p.p.p.p.p.p.p.p.p.p.p.r._+:+<+[+p.p.s.H.I.    ",
"    0.}+]+*+l.l.]+3.|+j.1+2+l.*+2.2.m.3+4+5+6+p.p.p.p.p.p.p.p.p.p.p.p.p.7+8+9+0+p.p.p.s.H.I.    ",
"    a+b+m.8.8.m.c+d+e+o.f+g+m.8.8.s.n.h+i+j+k+p.p.p.p.p.p.p.p.p.p.p.p.r.l+m+n+W.p.p.p.s.H.I.    ",
"    I.H.s.p.o.o.o+p+q+r+s+8.o.o.o.o.p.p.=+t+u+r.p.p.p.p.p.p.p.p.p.p.v+w+x+y+W.p.p.p.p.s.H.I.    ",
"    I.H.s.p.p.p.p.W.U.U.z+A+p.p.p.p.p.p.p.B+C+D+p.p.p.p.p.p.p.p.p.p.E+F+G+H+p.p.p.p.p.s.H.I.    ",
"    I.H.s.p.p.p.W.I+J+s.s+U.p.p.p.p.p.p.p.7+K+L+v+p.p.p.p.p.p.p.p.p.M+N+O+s.p.p.p.p.p.s.H.I.    ",
"    I.H.s.p.p.W.P+Q+R+S+T+U+W.p.p.p.p.p.p.p.V+W+5.X+p.p.p.p.p.p.p.Y+Z+`+ @W.p.p.p.p.p.s.H.I.    ",
"    I.H.s.p.p.W.H.9..@+@@@#@$@$@$@$@$@$@$@$@%@&@*@$@=@$@p.p.p.p.p.-@;@>@,@p.p.p.p.p.p.s.H.I.    ",
"    I.0.W.$@'@)@7+r+!@W.~@I+=@{@{@]@{@{@{@^@/@(@_@:@I+!@I+I+=@$@v+<@[@v.p.p.p.p.p.p.p.s.H.I.    ",
"    }@|@1@2@3@3@!@I+$@4@5@7+!@!@!@6@6@6@6@6@r+7@8@9@!@0@0@0@+@6@6.a@b@W.p.p.p.p.p.p.p.s.H.I.    ",
"    c@I.)@6@d@d@e@f@g@h@z+i@+@+@+@+@+@o+o+o+0@j@k@l@m@m@n@n@n@o@p@q@r@6@s@$@t@p.p.p.p.s.H.I.    ",
"    u@v@6@w@o++@x@}@y@z@z+A@n@B@n@B@B@B@g+C@g+D@E@F@G@H@I@J@K@L@M@N@O@P@P@h@K@n@0@!@!@=@I.Q@    ",
"    R@S@o+g+T@T@U@h@z@V@W@e@h@h@h@h@P@P@P@z@z@z@X@Y@Z@`@z@z@z@ #.#+#e@@###############h@$#%#    ",
"    &#c@B@P@z@z@z@##*#n@=#I@z@z@e@e@e@e@########-#;#>#+#####,#'#)#G@!#~#~#~#~#~#~#~#~#z@{#]#    ",
"    ^#/#P@~#####(#b+_#:#<#[#X@X@!#,#}#}#}#:#:#:#~#|#1#2#3#4#5#6#7#8#8#Q+9#9#9#9#9#8#8#~#0#a#    ",
"    b#c###A@A@~#d#e#f#c+~@*#9#8#8#8#8#*#*#*#*#*#*#g#h#i#j#k#l#m#*#n#n#o@o@o@o@o@o@o@o#p#q#r#    ",
"    s#t#~#*#*#*#A@n#f@!#u#}#v#n#n#n#n#o@o@o@o@o@o@o@w#x#y#z#A#B#(#(#(#(#(#(#C#C#C#C#C#n#D#E#    ",
"    F#%#*#G#H#G#(#v#A@X@I#J#G#G#K#(#L#M#(#f@N#O#o#C#C#C#P#Q#R#S#(#f@T#T#O#U#V#O#G#O#V#W#X#Y#    ",
"    Z#b#o@o@o#o#p#`# $.$+$@$#$$$%$&$A@p#(#p#p#}#*$o#p#p#=$8#8#A@}@o#v#v#-$o#v#o#;$>$,$,$F#'$    ",
"    )$!$~${$]$^$/$($_$:$<$[$}$|$1$2$3$4$5$6$7$8$9$0$7$a$b$0$c$6$d$e$c$c$=#f$g$h$i$j$k$,$Z#l$    ",
"    m$n$$$V#V#V#O#o$/#p$q$r$s$t$u$v$w$V#~$x$~$0#y$z$A$A$x$B$C$D$E$F$G$B$H$x$I$J$K$L$R@M$N$O$    ",
"    l$P$~$B$B$B$Q$Q$A$R$S$T$U$V$W$X$Y$V#Z$Z$`$ %.%X#o$+%+%@%#%$%%%&%*%Z$@%=%X#-%;%>%,%~$'%)%    ",
"    !%N$x$Z$Z$Z$~%+%+%B${%B$x$]%^%b#^%@%@%@%s$/%(%@%s$s$_%_%:%<%/%[%}%_%|%1%s$X##%2%3%@%!%4%    ",
"    5%'%Z$6%7%8%8%s$s$+%9%0%/%@%_%@%_%a%b%/%c%1%s$/%c%}%c%}%/%_%/%_%d%e%f%g%h%1%c%/%}%/%O$i%    ",
"    4%l$s$c%c%c%c%c%}%_%j%a%}%}%e%e%e%e%g%g%g%g%g%g%:%:%:%:%k%k%k%k%k%l%l%l%l%l%l%I$I$e%v$m%    ",
"    n%5%1%g%g%g%g%g%:%}%o%p%:%:%k%k%k%k%l%l%l%l%l%I$l%I$q%q%q%q%q%q%z$z$z$z$z$z$z$z$z$g%4%r%    ",
"    m%n%s%g%g%g%g%g%g%g%c%g%g%g%g%g%g%g%g%g%g%g%g%g%g%g%g%g%g%g%g%g%g%g%g%g%g%g%g%g%g%t%n%r%    ",
"    r%r%n%4%4%4%4%4%4%4%4%4%4%4%4%4%4%4%4%4%4%4%4%4%4%4%4%4%4%4%4%4%4%4%4%4%4%4%4%4%4%n%r%r%    ",
"      r%r%r%r%r%r%r%r%r%r%r%r%r%r%r%r%r%r%r%r%r%r%r%r%r%r%r%r%r%r%r%r%r%r%r%r%r%r%r%r%r%r%      ",
"                                                                                                ",
"                                                                                                "};
