/* XPM */
static char * icon_gui_16_xpm[] = {
"16 16 147 2",
"  	c None",
". 	c #A6A6A4",
"+ 	c #CACBC9",
"@ 	c #CACBCA",
"# 	c #CACAC9",
"$ 	c #CBCBC9",
"% 	c #ABABA9",
"& 	c #FDF7F2",
"* 	c #FDA8B1",
"= 	c #FCFDFC",
"- 	c #FCFCFB",
"; 	c #FCFCFA",
"> 	c #E3E3E2",
", 	c #FCE1D6",
"' 	c #FE5B6F",
") 	c #FCFFFF",
"! 	c #FBFBFA",
"~ 	c #FBFBFB",
"{ 	c #FAFAF9",
"] 	c #F9F9F7",
"^ 	c #F9F9F6",
"/ 	c #E0E0DD",
"( 	c #FCE2D7",
"_ 	c #FE6373",
": 	c #FE3A4B",
"< 	c #FE3C4A",
"[ 	c #FCB5BD",
"} 	c #FBFEFD",
"| 	c #FAFAF8",
"1 	c #F8F8F5",
"2 	c #F6F6F2",
"3 	c #F5F5F0",
"4 	c #F5F5EF",
"5 	c #DCDCD7",
"6 	c #C9C9C7",
"7 	c #FBEADF",
"8 	c #FF0029",
"9 	c #FBBDA9",
"0 	c #FAFBF7",
"a 	c #FC7773",
"b 	c #FB817F",
"c 	c #F5FBF4",
"d 	c #C5C5C1",
"e 	c #F6E8DB",
"f 	c #FF0623",
"g 	c #F6ECE4",
"h 	c #F6F6F1",
"i 	c #F5F9F5",
"j 	c #F8A5A8",
"k 	c #FC3545",
"l 	c #F5EBD9",
"m 	c #F5F6F1",
"n 	c #C5C5BF",
"o 	c #F5E8DA",
"p 	c #FB5E72",
"q 	c #F5F7F1",
"r 	c #F4FCF1",
"s 	c #FB4F63",
"t 	c #FB596F",
"u 	c #F4FAEE",
"v 	c #F5F6F0",
"w 	c #C3C3BE",
"x 	c #F3E6D8",
"y 	c #F96174",
"z 	c #F2F3ED",
"A 	c #F2F2EC",
"B 	c #F1F2EC",
"C 	c #F1F1EB",
"D 	c #F1F0EA",
"E 	c #F1F4EF",
"F 	c #F3E1CF",
"G 	c #FC455A",
"H 	c #F4EBDD",
"I 	c #DDDDD7",
"J 	c #BDBEB9",
"K 	c #EEE1D3",
"L 	c #F75F73",
"M 	c #EBEEE8",
"N 	c #EBEBE6",
"O 	c #EBEBE5",
"P 	c #EAEBE5",
"Q 	c #EAEAE5",
"R 	c #EAF0E6",
"S 	c #FB3342",
"T 	c #EEF5ED",
"U 	c #D8D8D3",
"V 	c #B9BAB5",
"W 	c #E7DCCE",
"X 	c #F55D70",
"Y 	c #E5E8E2",
"Z 	c #E5E7E1",
"` 	c #E4E6E0",
" .	c #E4E5E0",
"..	c #E5E5E0",
"+.	c #E3E6E0",
"@.	c #E4E5DF",
"#.	c #E3E5E0",
"$.	c #EE8A8A",
"%.	c #EC989B",
"&.	c #CBCCC7",
"*.	c #B4B5B0",
"=.	c #E2D6C8",
"-.	c #F25B6E",
";.	c #DFE2DD",
">.	c #DFE0DA",
",.	c #DEE0DA",
"'.	c #DEE0DB",
").	c #DEE0D9",
"!.	c #DEDFD9",
"~.	c #DDDFDA",
"{.	c #DED7CA",
"].	c #F25366",
"^.	c #C6CAC5",
"/.	c #AEB5AF",
"(.	c #DBD9C8",
"_.	c #F0586C",
":.	c #D9DDD7",
"<.	c #D9DBD6",
"[.	c #D8DBD5",
"}.	c #D9DAD4",
"|.	c #D8DBD4",
"1.	c #D8DAD5",
"2.	c #D8D9D4",
"3.	c #D7DAD3",
"4.	c #D6DED6",
"5.	c #F73040",
"6.	c #BECDC4",
"7.	c #BF5557",
"8.	c #F82934",
"9.	c #E4888B",
"0.	c #D2D6D1",
"a.	c #D2D5CF",
"b.	c #D1D4CF",
"c.	c #D1D4CE",
"d.	c #D2D4CE",
"e.	c #D0D3CE",
"f.	c #D0D5CF",
"g.	c #DAAE9B",
"h.	c #D15F64",
"i.	c #8D9390",
"j.	c #B8C3BF",
"k.	c #B9BEB9",
"l.	c #B9BCB7",
"m.	c #B9BCB6",
"n.	c #B8BCB6",
"o.	c #B9BDB8",
"p.	c #969B97",
"                                ",
"  . + @ # # # # # # # # # $ %   ",
"  # & * = - - - - - - - ; - >   ",
"  # , ' ) ) - - ! - ~ { ] ^ /   ",
"  # ( _ : < [ } | ] 1 2 3 4 5   ",
"  6 7 8 9 0 a b c 4 4 4 4 4 5   ",
"  d e f g h i j k l m 4 4 4 5   ",
"  n o p q 4 4 4 r s t u v 4 5   ",
"  w x y z A B C D E F G H 4 I   ",
"  J K L M N O P O Q P R S T U   ",
"  V W X Y Z `  ...+.@.#.$.%.&.  ",
"  *.=.-.;.>.,.'.,.).!.~.{.].^.  ",
"  /.(._.:.<.[.}.|.1.2.3.4.5.6.  ",
"  7.8.9.0.a.a.a.b.c.d.e.f.g.h.  ",
"  i.j.k.l.l.l.l.l.m.m.n.n.o.p.  ",
"                                "};
